%TF.GenerationSoftware,KiCad,Pcbnew,10.0.2*%
%TF.CreationDate,2026-07-01T19:27:33+03:00*%
%TF.ProjectId,Transit stealer,5472616e-7369-4742-9073-7465616c6572,rev?*%
%TF.SameCoordinates,Original*%
%TF.FileFunction,Paste,Top*%
%TF.FilePolarity,Positive*%
%FSLAX46Y46*%
G04 Gerber Fmt 4.6, Leading zero omitted, Abs format (unit mm)*
G04 Created by KiCad (PCBNEW 10.0.2) date 2026-07-01 19:27:33*
%MOMM*%
%LPD*%
G01*
G04 APERTURE LIST*
G04 Aperture macros list*
%AMRoundRect*
0 Rectangle with rounded corners*
0 $1 Rounding radius*
0 $2 $3 $4 $5 $6 $7 $8 $9 X,Y pos of 4 corners*
0 Add a 4 corners polygon primitive as box body*
4,1,4,$2,$3,$4,$5,$6,$7,$8,$9,$2,$3,0*
0 Add four circle primitives for the rounded corners*
1,1,$1+$1,$2,$3*
1,1,$1+$1,$4,$5*
1,1,$1+$1,$6,$7*
1,1,$1+$1,$8,$9*
0 Add four rect primitives between the rounded corners*
20,1,$1+$1,$2,$3,$4,$5,0*
20,1,$1+$1,$4,$5,$6,$7,0*
20,1,$1+$1,$6,$7,$8,$9,0*
20,1,$1+$1,$8,$9,$2,$3,0*%
G04 Aperture macros list end*
%ADD10RoundRect,0.135000X-0.185000X0.135000X-0.185000X-0.135000X0.185000X-0.135000X0.185000X0.135000X0*%
%ADD11RoundRect,0.150000X-0.587500X-0.150000X0.587500X-0.150000X0.587500X0.150000X-0.587500X0.150000X0*%
%ADD12RoundRect,0.079500X-0.100500X0.079500X-0.100500X-0.079500X0.100500X-0.079500X0.100500X0.079500X0*%
%ADD13RoundRect,0.160000X0.026517X0.252791X-0.252791X-0.026517X-0.026517X-0.252791X0.252791X0.026517X0*%
%ADD14RoundRect,0.135000X0.185000X-0.135000X0.185000X0.135000X-0.185000X0.135000X-0.185000X-0.135000X0*%
%ADD15RoundRect,0.140000X-0.170000X0.140000X-0.170000X-0.140000X0.170000X-0.140000X0.170000X0.140000X0*%
%ADD16RoundRect,0.225000X-0.017678X0.335876X-0.335876X0.017678X0.017678X-0.335876X0.335876X-0.017678X0*%
%ADD17RoundRect,0.250000X-0.350000X0.450000X-0.350000X-0.450000X0.350000X-0.450000X0.350000X0.450000X0*%
%ADD18RoundRect,0.225000X0.375000X-0.225000X0.375000X0.225000X-0.375000X0.225000X-0.375000X-0.225000X0*%
%ADD19RoundRect,0.079500X-0.079500X-0.100500X0.079500X-0.100500X0.079500X0.100500X-0.079500X0.100500X0*%
%ADD20RoundRect,0.150000X0.521491X-0.309359X-0.309359X0.521491X-0.521491X0.309359X0.309359X-0.521491X0*%
%ADD21RoundRect,0.160000X0.252791X-0.026517X-0.026517X0.252791X-0.252791X0.026517X0.026517X-0.252791X0*%
%ADD22RoundRect,0.225000X-0.225000X-0.250000X0.225000X-0.250000X0.225000X0.250000X-0.225000X0.250000X0*%
%ADD23RoundRect,0.160000X-0.252791X0.026517X0.026517X-0.252791X0.252791X-0.026517X-0.026517X0.252791X0*%
%ADD24RoundRect,0.140000X0.021213X-0.219203X0.219203X-0.021213X-0.021213X0.219203X-0.219203X0.021213X0*%
%ADD25RoundRect,0.150000X-0.512500X-0.150000X0.512500X-0.150000X0.512500X0.150000X-0.512500X0.150000X0*%
%ADD26RoundRect,0.250000X0.480000X0.480000X-0.480000X0.480000X-0.480000X-0.480000X0.480000X-0.480000X0*%
%ADD27RoundRect,0.062500X0.337500X0.062500X-0.337500X0.062500X-0.337500X-0.062500X0.337500X-0.062500X0*%
%ADD28RoundRect,0.062500X0.062500X0.337500X-0.062500X0.337500X-0.062500X-0.337500X0.062500X-0.337500X0*%
%ADD29RoundRect,0.079500X-0.014849X0.127279X-0.127279X0.014849X0.014849X-0.127279X0.127279X-0.014849X0*%
%ADD30RoundRect,0.135000X0.135000X0.185000X-0.135000X0.185000X-0.135000X-0.185000X0.135000X-0.185000X0*%
%ADD31RoundRect,0.237500X0.044194X0.380070X-0.380070X-0.044194X-0.044194X-0.380070X0.380070X0.044194X0*%
%ADD32RoundRect,0.140000X-0.140000X-0.170000X0.140000X-0.170000X0.140000X0.170000X-0.140000X0.170000X0*%
%ADD33R,1.200000X1.470000*%
%ADD34RoundRect,0.250000X0.565685X-0.070711X-0.070711X0.565685X-0.565685X0.070711X0.070711X-0.565685X0*%
%ADD35RoundRect,0.140000X0.219203X0.021213X0.021213X0.219203X-0.219203X-0.021213X-0.021213X-0.219203X0*%
%ADD36RoundRect,0.250000X-0.700036X0.000000X0.000000X-0.700036X0.700036X0.000000X0.000000X0.700036X0*%
%ADD37RoundRect,0.062500X-0.282843X0.194454X0.194454X-0.282843X0.282843X-0.194454X-0.194454X0.282843X0*%
%ADD38RoundRect,0.062500X-0.282843X-0.194454X-0.194454X-0.282843X0.282843X0.194454X0.194454X0.282843X0*%
%ADD39RoundRect,0.250000X-0.255000X-0.440000X0.255000X-0.440000X0.255000X0.440000X-0.255000X0.440000X0*%
%ADD40RoundRect,0.150000X-0.825000X-0.150000X0.825000X-0.150000X0.825000X0.150000X-0.825000X0.150000X0*%
G04 APERTURE END LIST*
D10*
%TO.C,R16*%
X83740000Y-163290000D03*
X83740000Y-164310000D03*
%TD*%
D11*
%TO.C,Q2*%
X91167500Y-108445000D03*
X91167500Y-110345000D03*
X93042500Y-109395000D03*
%TD*%
D12*
%TO.C,C29*%
X99940000Y-71850000D03*
X99940000Y-72540000D03*
%TD*%
D13*
%TO.C,R1*%
X78842496Y-96277504D03*
X77997504Y-97122496D03*
%TD*%
D14*
%TO.C,R11*%
X103725000Y-107715000D03*
X103725000Y-106695000D03*
%TD*%
D15*
%TO.C,C10*%
X103660000Y-77920000D03*
X103660000Y-78880000D03*
%TD*%
D16*
%TO.C,C12*%
X106778008Y-79801992D03*
X105681992Y-80898008D03*
%TD*%
D17*
%TO.C,Y2*%
X104260000Y-74230000D03*
X104260000Y-76430000D03*
X105960000Y-76430000D03*
X105960000Y-74230000D03*
%TD*%
D18*
%TO.C,D2*%
X96752500Y-114832500D03*
X96752500Y-111532500D03*
%TD*%
D19*
%TO.C,C31*%
X95035000Y-75190000D03*
X95725000Y-75190000D03*
%TD*%
D14*
%TO.C,R12*%
X103735000Y-109675000D03*
X103735000Y-108655000D03*
%TD*%
D20*
%TO.C,Q3*%
X89017961Y-100895964D03*
X90361464Y-99552461D03*
X88363887Y-98898387D03*
%TD*%
D21*
%TO.C,R14*%
X94128896Y-94110496D03*
X93283904Y-93265504D03*
%TD*%
D19*
%TO.C,C26*%
X95035000Y-75980000D03*
X95725000Y-75980000D03*
%TD*%
D22*
%TO.C,C11*%
X105825000Y-83780000D03*
X107375000Y-83780000D03*
%TD*%
D23*
%TO.C,R13*%
X91177504Y-98347504D03*
X92022496Y-99192496D03*
%TD*%
D24*
%TO.C,C7*%
X78181189Y-95138811D03*
X78860011Y-94459989D03*
%TD*%
D25*
%TO.C,U6*%
X99747500Y-112312500D03*
X99747500Y-113262500D03*
X99747500Y-114212500D03*
X102022500Y-114212500D03*
X102022500Y-112312500D03*
%TD*%
D26*
%TO.C,U1*%
X100445000Y-77565000D03*
X100445000Y-75815000D03*
X98695000Y-77565000D03*
X98695000Y-75815000D03*
D27*
X102020000Y-78440000D03*
X102020000Y-77940000D03*
X102020000Y-77440000D03*
X102020000Y-76940000D03*
X102020000Y-76440000D03*
X102020000Y-75940000D03*
X102020000Y-75440000D03*
X102020000Y-74940000D03*
D28*
X101320000Y-74240000D03*
X100820000Y-74240000D03*
X100320000Y-74240000D03*
X99820000Y-74240000D03*
X99320000Y-74240000D03*
X98820000Y-74240000D03*
X98320000Y-74240000D03*
X97820000Y-74240000D03*
D27*
X97120000Y-74940000D03*
X97120000Y-75440000D03*
X97120000Y-75940000D03*
X97120000Y-76440000D03*
X97120000Y-76940000D03*
X97120000Y-77440000D03*
X97120000Y-77940000D03*
X97120000Y-78440000D03*
D28*
X97820000Y-79140000D03*
X98320000Y-79140000D03*
X98820000Y-79140000D03*
X99320000Y-79140000D03*
X99820000Y-79140000D03*
X100320000Y-79140000D03*
X100820000Y-79140000D03*
X101320000Y-79140000D03*
%TD*%
D29*
%TO.C,C27*%
X96773952Y-73436048D03*
X96286048Y-73923952D03*
%TD*%
D30*
%TO.C,R15*%
X86760000Y-163300000D03*
X85740000Y-163300000D03*
%TD*%
D31*
%TO.C,C5*%
X86319880Y-101390120D03*
X85100120Y-102609880D03*
%TD*%
D14*
%TO.C,R7*%
X94915000Y-106745000D03*
X94915000Y-105725000D03*
%TD*%
D32*
%TO.C,C8*%
X101550000Y-72720000D03*
X102510000Y-72720000D03*
%TD*%
D33*
%TO.C,L2*%
X91200000Y-73000000D03*
X89480000Y-73000000D03*
%TD*%
D12*
%TO.C,C34*%
X95760000Y-77565000D03*
X95760000Y-78255000D03*
%TD*%
D34*
%TO.C,Y3*%
X89555658Y-93325677D03*
X88000023Y-91770042D03*
X86797942Y-92972123D03*
X88353577Y-94527758D03*
%TD*%
D33*
%TO.C,L1*%
X91200000Y-75380000D03*
X89480000Y-75380000D03*
%TD*%
D32*
%TO.C,C6*%
X82680000Y-93640000D03*
X83640000Y-93640000D03*
%TD*%
D12*
%TO.C,C32*%
X97500000Y-71850000D03*
X97500000Y-72540000D03*
%TD*%
%TO.C,C33*%
X99130000Y-71850000D03*
X99130000Y-72540000D03*
%TD*%
D19*
%TO.C,C30*%
X95045000Y-76780000D03*
X95735000Y-76780000D03*
%TD*%
D12*
%TO.C,C28*%
X98320000Y-71850000D03*
X98320000Y-72540000D03*
%TD*%
D20*
%TO.C,Q4*%
X91467761Y-96771264D03*
X92811264Y-95427761D03*
X90813687Y-94773687D03*
%TD*%
D24*
%TO.C,C1*%
X80080589Y-95029411D03*
X80759411Y-94350589D03*
%TD*%
D35*
%TO.C,C4*%
X84249411Y-103879411D03*
X83570589Y-103200589D03*
%TD*%
%TO.C,C2*%
X80169411Y-101269411D03*
X79490589Y-100590589D03*
%TD*%
D36*
%TO.C,U2*%
X83101900Y-96971852D03*
X81793752Y-98280000D03*
X84410048Y-98280000D03*
X83101900Y-99588148D03*
D37*
X82606925Y-95310152D03*
X82253372Y-95663705D03*
X81899818Y-96017258D03*
X81546265Y-96370812D03*
X81192712Y-96724365D03*
X80839158Y-97077918D03*
X80485605Y-97431472D03*
X80132052Y-97785025D03*
D38*
X80132052Y-98774975D03*
X80485605Y-99128528D03*
X80839158Y-99482082D03*
X81192712Y-99835635D03*
X81546265Y-100189188D03*
X81899818Y-100542742D03*
X82253372Y-100896295D03*
X82606925Y-101249848D03*
D37*
X83596875Y-101249848D03*
X83950428Y-100896295D03*
X84303982Y-100542742D03*
X84657535Y-100189188D03*
X85011088Y-99835635D03*
X85364642Y-99482082D03*
X85718195Y-99128528D03*
X86071748Y-98774975D03*
D38*
X86071748Y-97785025D03*
X85718195Y-97431472D03*
X85364642Y-97077918D03*
X85011088Y-96724365D03*
X84657535Y-96370812D03*
X84303982Y-96017258D03*
X83950428Y-95663705D03*
X83596875Y-95310152D03*
%TD*%
D39*
%TO.C,U5*%
X98705000Y-106810000D03*
X98705000Y-108460000D03*
X99905000Y-106810000D03*
X99905000Y-108460000D03*
D40*
X96830000Y-105730000D03*
X96830000Y-107000000D03*
X96830000Y-108270000D03*
X96830000Y-109540000D03*
X101780000Y-109540000D03*
X101780000Y-108270000D03*
X101780000Y-107000000D03*
X101780000Y-105730000D03*
%TD*%
D32*
%TO.C,C25*%
X101530000Y-71680000D03*
X102490000Y-71680000D03*
%TD*%
M02*
