%TF.GenerationSoftware,KiCad,Pcbnew,10.0.2*%
%TF.CreationDate,2026-07-01T19:27:33+03:00*%
%TF.ProjectId,Transit stealer,5472616e-7369-4742-9073-7465616c6572,rev?*%
%TF.SameCoordinates,Original*%
%TF.FileFunction,Legend,Top*%
%TF.FilePolarity,Positive*%
%FSLAX46Y46*%
G04 Gerber Fmt 4.6, Leading zero omitted, Abs format (unit mm)*
G04 Created by KiCad (PCBNEW 10.0.2) date 2026-07-01 19:27:33*
%MOMM*%
%LPD*%
G01*
G04 APERTURE LIST*
G04 Aperture macros list*
%AMRoundRect*
0 Rectangle with rounded corners*
0 $1 Rounding radius*
0 $2 $3 $4 $5 $6 $7 $8 $9 X,Y pos of 4 corners*
0 Add a 4 corners polygon primitive as box body*
4,1,4,$2,$3,$4,$5,$6,$7,$8,$9,$2,$3,0*
0 Add four circle primitives for the rounded corners*
1,1,$1+$1,$2,$3*
1,1,$1+$1,$4,$5*
1,1,$1+$1,$6,$7*
1,1,$1+$1,$8,$9*
0 Add four rect primitives between the rounded corners*
20,1,$1+$1,$2,$3,$4,$5,0*
20,1,$1+$1,$4,$5,$6,$7,0*
20,1,$1+$1,$6,$7,$8,$9,0*
20,1,$1+$1,$8,$9,$2,$3,0*%
%AMRotRect*
0 Rectangle, with rotation*
0 The origin of the aperture is its center*
0 $1 length*
0 $2 width*
0 $3 Rotation angle, in degrees counterclockwise*
0 Add horizontal line*
21,1,$1,$2,0,0,$3*%
G04 Aperture macros list end*
%ADD10C,0.200000*%
%ADD11C,0.400000*%
%ADD12C,0.120000*%
%ADD13C,0.000000*%
%ADD14RoundRect,0.135000X-0.185000X0.135000X-0.185000X-0.135000X0.185000X-0.135000X0.185000X0.135000X0*%
%ADD15RoundRect,0.150000X-0.587500X-0.150000X0.587500X-0.150000X0.587500X0.150000X-0.587500X0.150000X0*%
%ADD16RoundRect,0.100000X-0.100000X0.130000X-0.100000X-0.130000X0.100000X-0.130000X0.100000X0.130000X0*%
%ADD17RoundRect,0.160000X0.026517X0.252791X-0.252791X-0.026517X-0.026517X-0.252791X0.252791X0.026517X0*%
%ADD18RoundRect,0.135000X0.185000X-0.135000X0.185000X0.135000X-0.185000X0.135000X-0.185000X-0.135000X0*%
%ADD19RoundRect,0.140000X-0.170000X0.140000X-0.170000X-0.140000X0.170000X-0.140000X0.170000X0.140000X0*%
%ADD20RoundRect,0.225000X-0.017678X0.335876X-0.335876X0.017678X0.017678X-0.335876X0.335876X-0.017678X0*%
%ADD21RoundRect,0.250000X-0.350000X0.450000X-0.350000X-0.450000X0.350000X-0.450000X0.350000X0.450000X0*%
%ADD22RoundRect,0.225000X0.375000X-0.225000X0.375000X0.225000X-0.375000X0.225000X-0.375000X-0.225000X0*%
%ADD23RoundRect,0.100000X-0.130000X-0.100000X0.130000X-0.100000X0.130000X0.100000X-0.130000X0.100000X0*%
%ADD24RoundRect,0.150000X0.521491X-0.309359X-0.309359X0.521491X-0.521491X0.309359X0.309359X-0.521491X0*%
%ADD25RoundRect,0.160000X0.252791X-0.026517X-0.026517X0.252791X-0.252791X0.026517X0.026517X-0.252791X0*%
%ADD26RoundRect,0.225000X-0.225000X-0.250000X0.225000X-0.250000X0.225000X0.250000X-0.225000X0.250000X0*%
%ADD27RoundRect,0.160000X-0.252791X0.026517X0.026517X-0.252791X0.252791X-0.026517X-0.026517X0.252791X0*%
%ADD28RoundRect,0.140000X0.021213X-0.219203X0.219203X-0.021213X-0.021213X0.219203X-0.219203X0.021213X0*%
%ADD29RoundRect,0.150000X-0.512500X-0.150000X0.512500X-0.150000X0.512500X0.150000X-0.512500X0.150000X0*%
%ADD30RoundRect,0.062500X0.337500X0.062500X-0.337500X0.062500X-0.337500X-0.062500X0.337500X-0.062500X0*%
%ADD31RoundRect,0.062500X0.062500X0.337500X-0.062500X0.337500X-0.062500X-0.337500X0.062500X-0.337500X0*%
%ADD32R,3.500000X3.500000*%
%ADD33RoundRect,0.100000X0.021213X0.162635X-0.162635X-0.021213X-0.021213X-0.162635X0.162635X0.021213X0*%
%ADD34RoundRect,0.135000X0.135000X0.185000X-0.135000X0.185000X-0.135000X-0.185000X0.135000X-0.185000X0*%
%ADD35RoundRect,0.237500X0.044194X0.380070X-0.380070X-0.044194X-0.044194X-0.380070X0.380070X0.044194X0*%
%ADD36RoundRect,0.140000X-0.140000X-0.170000X0.140000X-0.170000X0.140000X0.170000X-0.140000X0.170000X0*%
%ADD37RoundRect,0.102000X0.600000X0.735000X-0.600000X0.735000X-0.600000X-0.735000X0.600000X-0.735000X0*%
%ADD38RoundRect,0.250000X0.565685X-0.070711X-0.070711X0.565685X-0.565685X0.070711X0.070711X-0.565685X0*%
%ADD39RoundRect,0.140000X0.219203X0.021213X0.021213X0.219203X-0.219203X-0.021213X-0.021213X-0.219203X0*%
%ADD40RoundRect,0.062500X-0.282843X0.194454X0.194454X-0.282843X0.282843X-0.194454X-0.194454X0.282843X0*%
%ADD41RoundRect,0.062500X-0.282843X-0.194454X-0.194454X-0.282843X0.282843X0.194454X0.194454X0.282843X0*%
%ADD42RotRect,3.700000X3.700000X315.000000*%
%ADD43RoundRect,0.150000X-0.825000X-0.150000X0.825000X-0.150000X0.825000X0.150000X-0.825000X0.150000X0*%
%ADD44R,2.410000X3.300000*%
%ADD45RoundRect,0.250000X0.600000X0.600000X-0.600000X0.600000X-0.600000X-0.600000X0.600000X-0.600000X0*%
%ADD46C,1.700000*%
%ADD47C,0.650000*%
%ADD48O,1.000000X1.800000*%
%ADD49O,1.000000X2.100000*%
G04 APERTURE END LIST*
D10*
X78641578Y-103498266D02*
X78774911Y-103498266D01*
X78774911Y-103498266D02*
X78908244Y-103564933D01*
X78908244Y-103564933D02*
X78974911Y-103631600D01*
X78974911Y-103631600D02*
X79041578Y-103764933D01*
X79041578Y-103764933D02*
X79108244Y-104031600D01*
X79108244Y-104031600D02*
X79108244Y-104364933D01*
X79108244Y-104364933D02*
X79041578Y-104631600D01*
X79041578Y-104631600D02*
X78974911Y-104764933D01*
X78974911Y-104764933D02*
X78908244Y-104831600D01*
X78908244Y-104831600D02*
X78774911Y-104898266D01*
X78774911Y-104898266D02*
X78641578Y-104898266D01*
X78641578Y-104898266D02*
X78508244Y-104831600D01*
X78508244Y-104831600D02*
X78441578Y-104764933D01*
X78441578Y-104764933D02*
X78374911Y-104631600D01*
X78374911Y-104631600D02*
X78308244Y-104364933D01*
X78308244Y-104364933D02*
X78308244Y-104031600D01*
X78308244Y-104031600D02*
X78374911Y-103764933D01*
X78374911Y-103764933D02*
X78441578Y-103631600D01*
X78441578Y-103631600D02*
X78508244Y-103564933D01*
X78508244Y-103564933D02*
X78641578Y-103498266D01*
X79708244Y-104764933D02*
X79774911Y-104831600D01*
X79774911Y-104831600D02*
X79708244Y-104898266D01*
X79708244Y-104898266D02*
X79641577Y-104831600D01*
X79641577Y-104831600D02*
X79708244Y-104764933D01*
X79708244Y-104764933D02*
X79708244Y-104898266D01*
X80974911Y-103964933D02*
X80974911Y-104898266D01*
X80641578Y-103431600D02*
X80308244Y-104431600D01*
X80308244Y-104431600D02*
X81174911Y-104431600D01*
X81508244Y-103498266D02*
X81974911Y-104898266D01*
X81974911Y-104898266D02*
X82441577Y-103498266D01*
D11*
X62673633Y-99064550D02*
X63816490Y-99064550D01*
X63245061Y-101064550D02*
X63245061Y-99064550D01*
X64483157Y-101064550D02*
X64483157Y-99731216D01*
X64483157Y-100112169D02*
X64578395Y-99921692D01*
X64578395Y-99921692D02*
X64673633Y-99826454D01*
X64673633Y-99826454D02*
X64864109Y-99731216D01*
X64864109Y-99731216D02*
X65054586Y-99731216D01*
X66578395Y-101064550D02*
X66578395Y-100016931D01*
X66578395Y-100016931D02*
X66483157Y-99826454D01*
X66483157Y-99826454D02*
X66292681Y-99731216D01*
X66292681Y-99731216D02*
X65911728Y-99731216D01*
X65911728Y-99731216D02*
X65721252Y-99826454D01*
X66578395Y-100969312D02*
X66387919Y-101064550D01*
X66387919Y-101064550D02*
X65911728Y-101064550D01*
X65911728Y-101064550D02*
X65721252Y-100969312D01*
X65721252Y-100969312D02*
X65626014Y-100778835D01*
X65626014Y-100778835D02*
X65626014Y-100588359D01*
X65626014Y-100588359D02*
X65721252Y-100397883D01*
X65721252Y-100397883D02*
X65911728Y-100302645D01*
X65911728Y-100302645D02*
X66387919Y-100302645D01*
X66387919Y-100302645D02*
X66578395Y-100207407D01*
X67530776Y-99731216D02*
X67530776Y-101064550D01*
X67530776Y-99921692D02*
X67626014Y-99826454D01*
X67626014Y-99826454D02*
X67816490Y-99731216D01*
X67816490Y-99731216D02*
X68102205Y-99731216D01*
X68102205Y-99731216D02*
X68292681Y-99826454D01*
X68292681Y-99826454D02*
X68387919Y-100016931D01*
X68387919Y-100016931D02*
X68387919Y-101064550D01*
X69245062Y-100969312D02*
X69435538Y-101064550D01*
X69435538Y-101064550D02*
X69816490Y-101064550D01*
X69816490Y-101064550D02*
X70006967Y-100969312D01*
X70006967Y-100969312D02*
X70102205Y-100778835D01*
X70102205Y-100778835D02*
X70102205Y-100683597D01*
X70102205Y-100683597D02*
X70006967Y-100493121D01*
X70006967Y-100493121D02*
X69816490Y-100397883D01*
X69816490Y-100397883D02*
X69530776Y-100397883D01*
X69530776Y-100397883D02*
X69340300Y-100302645D01*
X69340300Y-100302645D02*
X69245062Y-100112169D01*
X69245062Y-100112169D02*
X69245062Y-100016931D01*
X69245062Y-100016931D02*
X69340300Y-99826454D01*
X69340300Y-99826454D02*
X69530776Y-99731216D01*
X69530776Y-99731216D02*
X69816490Y-99731216D01*
X69816490Y-99731216D02*
X70006967Y-99826454D01*
X70959348Y-101064550D02*
X70959348Y-99731216D01*
X70959348Y-99064550D02*
X70864110Y-99159788D01*
X70864110Y-99159788D02*
X70959348Y-99255026D01*
X70959348Y-99255026D02*
X71054586Y-99159788D01*
X71054586Y-99159788D02*
X70959348Y-99064550D01*
X70959348Y-99064550D02*
X70959348Y-99255026D01*
X71626015Y-99731216D02*
X72387919Y-99731216D01*
X71911729Y-99064550D02*
X71911729Y-100778835D01*
X71911729Y-100778835D02*
X72006967Y-100969312D01*
X72006967Y-100969312D02*
X72197443Y-101064550D01*
X72197443Y-101064550D02*
X72387919Y-101064550D01*
X67435539Y-104189200D02*
X67721253Y-104284438D01*
X67721253Y-104284438D02*
X68197444Y-104284438D01*
X68197444Y-104284438D02*
X68387920Y-104189200D01*
X68387920Y-104189200D02*
X68483158Y-104093961D01*
X68483158Y-104093961D02*
X68578396Y-103903485D01*
X68578396Y-103903485D02*
X68578396Y-103713009D01*
X68578396Y-103713009D02*
X68483158Y-103522533D01*
X68483158Y-103522533D02*
X68387920Y-103427295D01*
X68387920Y-103427295D02*
X68197444Y-103332057D01*
X68197444Y-103332057D02*
X67816491Y-103236819D01*
X67816491Y-103236819D02*
X67626015Y-103141580D01*
X67626015Y-103141580D02*
X67530777Y-103046342D01*
X67530777Y-103046342D02*
X67435539Y-102855866D01*
X67435539Y-102855866D02*
X67435539Y-102665390D01*
X67435539Y-102665390D02*
X67530777Y-102474914D01*
X67530777Y-102474914D02*
X67626015Y-102379676D01*
X67626015Y-102379676D02*
X67816491Y-102284438D01*
X67816491Y-102284438D02*
X68292682Y-102284438D01*
X68292682Y-102284438D02*
X68578396Y-102379676D01*
X69149825Y-102951104D02*
X69911729Y-102951104D01*
X69435539Y-102284438D02*
X69435539Y-103998723D01*
X69435539Y-103998723D02*
X69530777Y-104189200D01*
X69530777Y-104189200D02*
X69721253Y-104284438D01*
X69721253Y-104284438D02*
X69911729Y-104284438D01*
X71340301Y-104189200D02*
X71149825Y-104284438D01*
X71149825Y-104284438D02*
X70768872Y-104284438D01*
X70768872Y-104284438D02*
X70578396Y-104189200D01*
X70578396Y-104189200D02*
X70483158Y-103998723D01*
X70483158Y-103998723D02*
X70483158Y-103236819D01*
X70483158Y-103236819D02*
X70578396Y-103046342D01*
X70578396Y-103046342D02*
X70768872Y-102951104D01*
X70768872Y-102951104D02*
X71149825Y-102951104D01*
X71149825Y-102951104D02*
X71340301Y-103046342D01*
X71340301Y-103046342D02*
X71435539Y-103236819D01*
X71435539Y-103236819D02*
X71435539Y-103427295D01*
X71435539Y-103427295D02*
X70483158Y-103617771D01*
X73149825Y-104284438D02*
X73149825Y-103236819D01*
X73149825Y-103236819D02*
X73054587Y-103046342D01*
X73054587Y-103046342D02*
X72864111Y-102951104D01*
X72864111Y-102951104D02*
X72483158Y-102951104D01*
X72483158Y-102951104D02*
X72292682Y-103046342D01*
X73149825Y-104189200D02*
X72959349Y-104284438D01*
X72959349Y-104284438D02*
X72483158Y-104284438D01*
X72483158Y-104284438D02*
X72292682Y-104189200D01*
X72292682Y-104189200D02*
X72197444Y-103998723D01*
X72197444Y-103998723D02*
X72197444Y-103808247D01*
X72197444Y-103808247D02*
X72292682Y-103617771D01*
X72292682Y-103617771D02*
X72483158Y-103522533D01*
X72483158Y-103522533D02*
X72959349Y-103522533D01*
X72959349Y-103522533D02*
X73149825Y-103427295D01*
X74387920Y-104284438D02*
X74197444Y-104189200D01*
X74197444Y-104189200D02*
X74102206Y-103998723D01*
X74102206Y-103998723D02*
X74102206Y-102284438D01*
X75911730Y-104189200D02*
X75721254Y-104284438D01*
X75721254Y-104284438D02*
X75340301Y-104284438D01*
X75340301Y-104284438D02*
X75149825Y-104189200D01*
X75149825Y-104189200D02*
X75054587Y-103998723D01*
X75054587Y-103998723D02*
X75054587Y-103236819D01*
X75054587Y-103236819D02*
X75149825Y-103046342D01*
X75149825Y-103046342D02*
X75340301Y-102951104D01*
X75340301Y-102951104D02*
X75721254Y-102951104D01*
X75721254Y-102951104D02*
X75911730Y-103046342D01*
X75911730Y-103046342D02*
X76006968Y-103236819D01*
X76006968Y-103236819D02*
X76006968Y-103427295D01*
X76006968Y-103427295D02*
X75054587Y-103617771D01*
X76864111Y-104284438D02*
X76864111Y-102951104D01*
X76864111Y-103332057D02*
X76959349Y-103141580D01*
X76959349Y-103141580D02*
X77054587Y-103046342D01*
X77054587Y-103046342D02*
X77245063Y-102951104D01*
X77245063Y-102951104D02*
X77435540Y-102951104D01*
%TO.C,R16*%
D12*
X83360000Y-163646359D02*
X83360000Y-163953641D01*
X84120000Y-163646359D02*
X84120000Y-163953641D01*
%TO.C,Q2*%
X91345000Y-107835000D02*
X92865000Y-107835000D01*
X91345000Y-107885000D02*
X91345000Y-107835000D01*
X91345000Y-109785000D02*
X91345000Y-109005000D01*
X91345000Y-110955000D02*
X91345000Y-110905000D01*
X92865000Y-107835000D02*
X92865000Y-108835000D01*
X92865000Y-109955000D02*
X92865000Y-110955000D01*
X92865000Y-110955000D02*
X91345000Y-110955000D01*
X90805000Y-109015000D02*
X91045000Y-109345000D01*
X90565000Y-109345000D01*
X90805000Y-109015000D01*
G36*
X91045000Y-109345000D02*
G01*
X90565000Y-109345000D01*
X90805000Y-109015000D01*
X91045000Y-109345000D01*
G37*
%TO.C,R1*%
X78269825Y-96312773D02*
X78032773Y-96549825D01*
X78807227Y-96850175D02*
X78570175Y-97087227D01*
%TO.C,R11*%
X103345000Y-107358641D02*
X103345000Y-107051359D01*
X104105000Y-107358641D02*
X104105000Y-107051359D01*
%TO.C,C10*%
X103300000Y-78292164D02*
X103300000Y-78507836D01*
X104020000Y-78292164D02*
X104020000Y-78507836D01*
%TO.C,C12*%
X105968781Y-79889970D02*
X105769970Y-80088781D01*
X106690030Y-80611219D02*
X106491219Y-80810030D01*
%TO.C,Y2*%
X103400000Y-73270000D02*
X103400000Y-77390000D01*
X106820000Y-73270000D02*
X103400000Y-73270000D01*
D13*
%TO.C,g*%
G36*
X70758111Y-80713712D02*
G01*
X70891687Y-80734836D01*
X71022891Y-80774342D01*
X71078146Y-80797019D01*
X71165485Y-80843032D01*
X71253888Y-80902596D01*
X71338598Y-80971747D01*
X71414853Y-81046521D01*
X71477894Y-81122955D01*
X71489538Y-81139630D01*
X71529758Y-81205995D01*
X71568858Y-81282482D01*
X71603342Y-81361540D01*
X71629715Y-81435615D01*
X71635109Y-81454214D01*
X71646062Y-81502682D01*
X71653838Y-81557909D01*
X71659016Y-81624712D01*
X71661073Y-81671184D01*
X71666001Y-81811010D01*
X74288581Y-83325940D01*
X76911161Y-84840870D01*
X76992672Y-84798928D01*
X77029934Y-84780596D01*
X77062115Y-84766295D01*
X77084488Y-84758056D01*
X77090663Y-84756840D01*
X77109886Y-84753584D01*
X77137446Y-84745655D01*
X77145717Y-84742799D01*
X77185169Y-84733802D01*
X77237825Y-84729087D01*
X77298105Y-84728576D01*
X77360426Y-84732193D01*
X77419205Y-84739859D01*
X77453241Y-84747072D01*
X77539453Y-84774947D01*
X77615979Y-84813111D01*
X77687869Y-84864526D01*
X77748590Y-84920347D01*
X77823355Y-85006311D01*
X77879645Y-85096027D01*
X77918157Y-85191137D01*
X77939588Y-85293288D01*
X77944904Y-85383789D01*
X77940823Y-85469881D01*
X77927618Y-85546096D01*
X77903540Y-85620376D01*
X77881883Y-85670003D01*
X77839293Y-85743999D01*
X77784016Y-85815608D01*
X77720444Y-85880122D01*
X77652968Y-85932832D01*
X77616224Y-85954852D01*
X77574836Y-85976808D01*
X77574872Y-89009588D01*
X77574907Y-92042369D01*
X77639495Y-92075768D01*
X77756312Y-92146708D01*
X77860610Y-92231558D01*
X77951492Y-92328838D01*
X78028065Y-92437068D01*
X78089433Y-92554771D01*
X78134702Y-92680468D01*
X78162977Y-92812678D01*
X78173364Y-92949923D01*
X78173399Y-92958402D01*
X78164760Y-93097851D01*
X78138607Y-93230104D01*
X78094586Y-93356112D01*
X78032343Y-93476828D01*
X77951523Y-93593202D01*
X77924798Y-93625993D01*
X77862629Y-93689622D01*
X77785891Y-93751963D01*
X77699235Y-93810127D01*
X77607311Y-93861228D01*
X77514771Y-93902379D01*
X77439417Y-93927292D01*
X77310127Y-93952467D01*
X77177296Y-93959768D01*
X77043521Y-93949601D01*
X76911400Y-93922376D01*
X76783530Y-93878499D01*
X76662510Y-93818379D01*
X76633288Y-93800644D01*
X76574087Y-93763288D01*
X74029644Y-95232422D01*
X71485201Y-96701557D01*
X71474721Y-96797210D01*
X71457714Y-96911225D01*
X71432371Y-97010849D01*
X71396958Y-97099808D01*
X71349744Y-97181831D01*
X71288995Y-97260646D01*
X71230270Y-97323116D01*
X71188522Y-97363120D01*
X71152882Y-97393105D01*
X71116915Y-97417704D01*
X71074184Y-97441546D01*
X71045828Y-97455836D01*
X70963018Y-97493304D01*
X70887978Y-97519143D01*
X70814363Y-97534863D01*
X70735826Y-97541976D01*
X70680868Y-97542717D01*
X70632024Y-97541619D01*
X70586363Y-97539465D01*
X70549634Y-97536588D01*
X70530530Y-97533988D01*
X70413425Y-97501231D01*
X70304753Y-97452038D01*
X70205815Y-97387892D01*
X70117911Y-97310278D01*
X70042343Y-97220677D01*
X69980412Y-97120573D01*
X69933418Y-97011450D01*
X69902663Y-96894791D01*
X69891161Y-96805008D01*
X69884441Y-96711866D01*
X69238352Y-96338701D01*
X69166651Y-96297292D01*
X69079371Y-96246893D01*
X68977638Y-96188152D01*
X68862577Y-96121720D01*
X68735314Y-96048247D01*
X68596974Y-95968381D01*
X68448682Y-95882773D01*
X68291564Y-95792072D01*
X68126746Y-95696929D01*
X67955352Y-95597991D01*
X67778508Y-95495911D01*
X67597339Y-95391336D01*
X67412971Y-95284916D01*
X67226530Y-95177302D01*
X67039140Y-95069143D01*
X66851927Y-94961089D01*
X66707030Y-94877459D01*
X66530581Y-94775617D01*
X66358462Y-94676270D01*
X66191425Y-94579851D01*
X66030224Y-94486797D01*
X65875611Y-94397540D01*
X65728340Y-94312516D01*
X65589162Y-94232160D01*
X65458830Y-94156907D01*
X65338097Y-94087190D01*
X65227716Y-94023444D01*
X65128439Y-93966105D01*
X65041020Y-93915607D01*
X64966210Y-93872384D01*
X64904763Y-93836871D01*
X64857430Y-93809503D01*
X64824966Y-93790715D01*
X64808122Y-93780940D01*
X64805854Y-93779607D01*
X64793456Y-93776925D01*
X64774916Y-93782693D01*
X64746700Y-93798315D01*
X64726495Y-93811148D01*
X64626945Y-93866810D01*
X64516072Y-93912750D01*
X64399424Y-93947296D01*
X64282549Y-93968780D01*
X64180531Y-93975568D01*
X64121391Y-93972523D01*
X64051713Y-93963982D01*
X63979012Y-93951226D01*
X63910806Y-93935536D01*
X63864527Y-93921730D01*
X63750059Y-93875673D01*
X63647546Y-93819193D01*
X63551791Y-93749095D01*
X63482919Y-93687249D01*
X63392805Y-93587312D01*
X63318557Y-93478020D01*
X63260311Y-93361179D01*
X63218204Y-93238594D01*
X63192370Y-93112071D01*
X63184808Y-93008814D01*
X63616268Y-93008814D01*
X63629272Y-93110321D01*
X63659672Y-93206663D01*
X63706736Y-93295727D01*
X63769736Y-93375400D01*
X63791949Y-93397452D01*
X63871263Y-93459014D01*
X63959994Y-93504889D01*
X64055651Y-93534562D01*
X64155745Y-93547518D01*
X64257786Y-93543242D01*
X64359283Y-93521220D01*
X64371486Y-93517301D01*
X64452258Y-93485119D01*
X64520672Y-93445155D01*
X64570125Y-93404173D01*
X65090715Y-93404173D01*
X65099528Y-93409511D01*
X65124239Y-93424017D01*
X65164052Y-93447235D01*
X65218176Y-93478706D01*
X65285815Y-93517970D01*
X65366177Y-93564570D01*
X65458467Y-93618048D01*
X65561892Y-93677944D01*
X65675658Y-93743802D01*
X65798972Y-93815161D01*
X65931040Y-93891564D01*
X66071068Y-93972552D01*
X66218262Y-94057667D01*
X66371829Y-94146451D01*
X66530975Y-94238445D01*
X66694907Y-94333191D01*
X66862830Y-94430230D01*
X67033951Y-94529104D01*
X67207476Y-94629354D01*
X67382611Y-94730522D01*
X67558564Y-94832151D01*
X67734539Y-94933780D01*
X67909744Y-95034952D01*
X68083385Y-95135209D01*
X68254667Y-95234092D01*
X68422798Y-95331143D01*
X68586984Y-95425903D01*
X68746431Y-95517914D01*
X68900344Y-95606717D01*
X69047932Y-95691854D01*
X69188399Y-95772867D01*
X69320952Y-95849298D01*
X69444797Y-95920687D01*
X69559142Y-95986576D01*
X69663191Y-96046508D01*
X69756152Y-96100023D01*
X69837230Y-96146664D01*
X69905632Y-96185971D01*
X69960565Y-96217487D01*
X70001234Y-96240753D01*
X70026845Y-96255310D01*
X70036606Y-96260701D01*
X70036673Y-96260723D01*
X70046288Y-96254817D01*
X70067235Y-96238291D01*
X70096614Y-96213539D01*
X70131522Y-96182955D01*
X70138795Y-96176454D01*
X70185873Y-96136786D01*
X70235035Y-96099774D01*
X70282978Y-96067514D01*
X70326396Y-96042098D01*
X70361986Y-96025623D01*
X70385362Y-96020159D01*
X70404347Y-96015805D01*
X70429435Y-96005180D01*
X70432168Y-96003759D01*
X70459999Y-95992881D01*
X70496389Y-95983503D01*
X70516066Y-95980092D01*
X70559080Y-95973850D01*
X70605401Y-95966628D01*
X70622141Y-95963867D01*
X70669656Y-95960017D01*
X70729172Y-95961418D01*
X70794290Y-95967541D01*
X70858612Y-95977857D01*
X70896970Y-95986563D01*
X71003158Y-96023872D01*
X71105293Y-96078940D01*
X71200916Y-96150309D01*
X71250298Y-96196440D01*
X71315656Y-96262449D01*
X71496859Y-96158703D01*
X71557831Y-96123710D01*
X71620087Y-96087832D01*
X71679207Y-96053627D01*
X71730769Y-96023654D01*
X71770352Y-96000470D01*
X71772869Y-95998985D01*
X71810665Y-95976820D01*
X71841864Y-95958804D01*
X71863045Y-95946895D01*
X71870734Y-95943014D01*
X71879657Y-95938369D01*
X71902166Y-95925584D01*
X71935275Y-95906382D01*
X71975997Y-95882490D01*
X71995970Y-95870691D01*
X72039332Y-95845219D01*
X72076634Y-95823677D01*
X72104829Y-95807798D01*
X72120867Y-95799312D01*
X72123292Y-95798367D01*
X72133111Y-95793661D01*
X72155852Y-95780887D01*
X72187998Y-95762066D01*
X72221473Y-95741985D01*
X72250295Y-95724789D01*
X72293487Y-95699384D01*
X72348684Y-95667145D01*
X72413520Y-95629447D01*
X72485630Y-95587665D01*
X72562647Y-95543173D01*
X72642206Y-95497345D01*
X72671305Y-95480618D01*
X72753489Y-95433354D01*
X72835944Y-95385847D01*
X72915952Y-95339668D01*
X72990796Y-95296390D01*
X73057756Y-95257584D01*
X73114114Y-95224823D01*
X73157153Y-95199680D01*
X73165682Y-95194669D01*
X73211709Y-95167709D01*
X73251650Y-95144552D01*
X73282679Y-95126819D01*
X73301966Y-95116130D01*
X73306991Y-95113705D01*
X73316146Y-95109036D01*
X73338833Y-95096188D01*
X73372043Y-95076898D01*
X73412767Y-95052906D01*
X73432167Y-95041382D01*
X73475389Y-95015852D01*
X73512588Y-94994276D01*
X73540703Y-94978398D01*
X73556674Y-94969963D01*
X73559050Y-94969058D01*
X73568775Y-94964345D01*
X73592020Y-94951348D01*
X73625810Y-94931778D01*
X73667172Y-94907347D01*
X73691661Y-94892706D01*
X73740526Y-94863519D01*
X73787902Y-94835489D01*
X73829321Y-94811240D01*
X73860316Y-94793399D01*
X73868076Y-94789042D01*
X73901759Y-94770115D01*
X73950073Y-94742616D01*
X74011000Y-94707710D01*
X74082521Y-94666563D01*
X74162619Y-94620340D01*
X74249276Y-94570206D01*
X74340474Y-94517326D01*
X74434197Y-94462865D01*
X74528425Y-94407989D01*
X74575823Y-94380336D01*
X74622296Y-94353346D01*
X74667590Y-94327285D01*
X74706610Y-94305069D01*
X74734267Y-94289613D01*
X74734935Y-94289248D01*
X74767723Y-94270796D01*
X74808430Y-94247147D01*
X74848569Y-94223236D01*
X74850776Y-94221899D01*
X74891547Y-94197846D01*
X74934372Y-94173628D01*
X74970221Y-94154350D01*
X74971315Y-94153788D01*
X75010823Y-94132404D01*
X75052692Y-94108040D01*
X75072444Y-94095805D01*
X75096469Y-94080979D01*
X75133525Y-94058796D01*
X75179890Y-94031455D01*
X75231840Y-94001151D01*
X75279772Y-93973461D01*
X75344489Y-93936223D01*
X75418745Y-93893443D01*
X75495388Y-93849245D01*
X75567268Y-93807751D01*
X75602816Y-93787208D01*
X75661837Y-93753131D01*
X75722945Y-93717928D01*
X75781203Y-93684441D01*
X75831672Y-93655507D01*
X75863181Y-93637512D01*
X75932074Y-93598215D01*
X75999419Y-93559679D01*
X76062545Y-93523444D01*
X76118777Y-93491049D01*
X76165442Y-93464033D01*
X76199866Y-93443936D01*
X76215155Y-93434865D01*
X76240240Y-93419860D01*
X76259853Y-93408295D01*
X76262760Y-93406616D01*
X76269292Y-93399491D01*
X76268960Y-93386365D01*
X76261078Y-93362894D01*
X76252640Y-93342510D01*
X76228666Y-93286332D01*
X70681050Y-93286332D01*
X65133435Y-93286332D01*
X65110219Y-93343397D01*
X65098799Y-93373311D01*
X65091811Y-93395303D01*
X65090715Y-93404173D01*
X64570125Y-93404173D01*
X64583317Y-93393241D01*
X64609769Y-93366579D01*
X64672547Y-93287336D01*
X64717859Y-93200572D01*
X64745897Y-93105725D01*
X64756071Y-93009644D01*
X76610947Y-93009644D01*
X76619651Y-93085880D01*
X76624276Y-93105701D01*
X76659859Y-93203875D01*
X76710977Y-93292671D01*
X76775889Y-93370404D01*
X76852851Y-93435391D01*
X76940123Y-93485949D01*
X77035960Y-93520394D01*
X77059209Y-93525899D01*
X77120941Y-93536850D01*
X77174747Y-93540287D01*
X77229684Y-93536259D01*
X77283538Y-93527101D01*
X77383420Y-93498237D01*
X77473167Y-93454496D01*
X77551944Y-93397743D01*
X77618918Y-93329840D01*
X77673253Y-93252650D01*
X77714116Y-93168038D01*
X77740671Y-93077865D01*
X77752084Y-92983995D01*
X77747522Y-92888292D01*
X77726148Y-92792617D01*
X77687130Y-92698836D01*
X77668969Y-92666503D01*
X77647121Y-92635565D01*
X77616234Y-92598479D01*
X77581833Y-92561739D01*
X77569951Y-92550131D01*
X77491676Y-92485583D01*
X77410670Y-92439130D01*
X77323978Y-92409584D01*
X77228640Y-92395755D01*
X77182513Y-92394343D01*
X77081061Y-92401631D01*
X76989610Y-92424228D01*
X76905529Y-92463235D01*
X76826187Y-92519754D01*
X76779270Y-92563019D01*
X76744532Y-92599926D01*
X76712240Y-92638011D01*
X76686741Y-92671956D01*
X76675396Y-92690151D01*
X76645890Y-92760046D01*
X76624814Y-92840647D01*
X76612917Y-92925873D01*
X76610947Y-93009644D01*
X64756071Y-93009644D01*
X64756855Y-93002236D01*
X64755791Y-92943453D01*
X64740911Y-92837979D01*
X64709281Y-92741681D01*
X64676558Y-92682538D01*
X65140498Y-92682538D01*
X65144696Y-92698585D01*
X65150897Y-92727057D01*
X65156887Y-92757272D01*
X65168528Y-92818641D01*
X70650858Y-92818029D01*
X70974985Y-92817980D01*
X71294222Y-92817903D01*
X71608032Y-92817801D01*
X71915874Y-92817674D01*
X72217210Y-92817523D01*
X72511502Y-92817349D01*
X72798209Y-92817153D01*
X73076794Y-92816935D01*
X73346717Y-92816696D01*
X73607440Y-92816438D01*
X73858423Y-92816161D01*
X74099128Y-92815866D01*
X74329016Y-92815553D01*
X74547547Y-92815224D01*
X74754183Y-92814880D01*
X74948385Y-92814520D01*
X75129615Y-92814147D01*
X75297332Y-92813761D01*
X75450998Y-92813362D01*
X75590075Y-92812953D01*
X75714023Y-92812532D01*
X75822303Y-92812102D01*
X75914377Y-92811663D01*
X75989706Y-92811217D01*
X76047750Y-92810763D01*
X76087971Y-92810302D01*
X76109830Y-92809836D01*
X76113902Y-92809501D01*
X76109688Y-92807785D01*
X76100909Y-92804227D01*
X76087106Y-92798640D01*
X76067818Y-92790839D01*
X76042586Y-92780638D01*
X76010950Y-92767851D01*
X75972450Y-92752293D01*
X75926626Y-92733777D01*
X75873019Y-92712119D01*
X75811168Y-92687132D01*
X75740614Y-92658630D01*
X75660897Y-92626429D01*
X75571557Y-92590341D01*
X75472134Y-92550182D01*
X75362169Y-92505766D01*
X75241201Y-92456907D01*
X75108772Y-92403419D01*
X74964420Y-92345116D01*
X74807686Y-92281813D01*
X74638110Y-92213324D01*
X74455233Y-92139464D01*
X74258595Y-92060046D01*
X74047735Y-91974885D01*
X73822194Y-91883795D01*
X73581512Y-91786590D01*
X73325230Y-91683086D01*
X73052886Y-91573095D01*
X72764023Y-91456432D01*
X72458179Y-91332911D01*
X72147132Y-91207290D01*
X70002913Y-90341312D01*
X69972606Y-90370712D01*
X69893094Y-90434927D01*
X69801313Y-90486427D01*
X69700637Y-90523779D01*
X69594439Y-90545553D01*
X69551279Y-90549573D01*
X69443042Y-90546665D01*
X69336394Y-90525294D01*
X69233987Y-90486252D01*
X69138469Y-90430333D01*
X69128121Y-90422911D01*
X69084062Y-90390667D01*
X67109906Y-91529920D01*
X66872516Y-91666964D01*
X66651615Y-91794596D01*
X66446943Y-91912967D01*
X66258242Y-92022228D01*
X66085253Y-92122531D01*
X65927715Y-92214028D01*
X65785372Y-92296871D01*
X65657962Y-92371211D01*
X65545228Y-92437199D01*
X65446910Y-92494987D01*
X65362750Y-92544727D01*
X65292487Y-92586571D01*
X65235864Y-92620670D01*
X65192621Y-92647175D01*
X65162499Y-92666239D01*
X65145239Y-92678012D01*
X65140498Y-92682538D01*
X64676558Y-92682538D01*
X64661544Y-92655401D01*
X64598342Y-92579977D01*
X64520316Y-92516248D01*
X64428108Y-92465055D01*
X64373328Y-92443159D01*
X64313671Y-92427721D01*
X64243107Y-92418108D01*
X64168788Y-92414644D01*
X64097867Y-92417651D01*
X64037494Y-92427455D01*
X64035884Y-92427867D01*
X63936235Y-92462906D01*
X63848521Y-92512781D01*
X63773522Y-92576594D01*
X63712023Y-92653444D01*
X63664804Y-92742433D01*
X63632648Y-92842661D01*
X63621390Y-92904255D01*
X63616268Y-93008814D01*
X63184808Y-93008814D01*
X63182948Y-92983414D01*
X63190072Y-92854428D01*
X63213880Y-92726920D01*
X63254507Y-92602694D01*
X63312089Y-92483555D01*
X63383894Y-92375057D01*
X63432887Y-92313657D01*
X63479618Y-92262296D01*
X63528393Y-92217230D01*
X63582992Y-92175124D01*
X64787247Y-92175124D01*
X64838274Y-92221615D01*
X64864708Y-92244601D01*
X64886260Y-92261348D01*
X64898536Y-92268459D01*
X64898944Y-92268509D01*
X64912967Y-92264123D01*
X64934880Y-92252828D01*
X64938736Y-92250526D01*
X64962237Y-92236757D01*
X64995776Y-92217784D01*
X65032405Y-92197532D01*
X65035168Y-92196025D01*
X65078078Y-92172605D01*
X65108356Y-92155899D01*
X65130318Y-92143421D01*
X65148278Y-92132680D01*
X65166554Y-92121189D01*
X65180534Y-92112211D01*
X65210149Y-92094192D01*
X65248539Y-92072231D01*
X65286609Y-92051504D01*
X65318461Y-92034120D01*
X65362016Y-92009564D01*
X65412447Y-91980594D01*
X65464926Y-91949972D01*
X65487175Y-91936832D01*
X65541908Y-91904485D01*
X65604315Y-91867788D01*
X65671064Y-91828681D01*
X65738823Y-91789107D01*
X65804263Y-91751007D01*
X65864050Y-91716324D01*
X65914854Y-91686999D01*
X65953343Y-91664973D01*
X65961701Y-91660242D01*
X65980939Y-91649278D01*
X66014165Y-91630214D01*
X66058676Y-91604608D01*
X66111767Y-91574016D01*
X66170731Y-91539996D01*
X66226888Y-91507561D01*
X66288688Y-91471899D01*
X66346938Y-91438382D01*
X66398963Y-91408544D01*
X66442088Y-91383914D01*
X66473640Y-91366024D01*
X66490060Y-91356881D01*
X66512842Y-91344077D01*
X66547702Y-91323923D01*
X66590193Y-91299011D01*
X66635867Y-91271936D01*
X66643642Y-91267296D01*
X66685916Y-91242380D01*
X66722421Y-91221495D01*
X66749914Y-91206450D01*
X66765153Y-91199053D01*
X66766868Y-91198595D01*
X66777919Y-91193733D01*
X66801501Y-91180567D01*
X66833925Y-91161225D01*
X66864238Y-91142427D01*
X66909987Y-91114151D01*
X66958545Y-91085024D01*
X67002359Y-91059544D01*
X67020664Y-91049281D01*
X67058954Y-91027773D01*
X67106224Y-91000555D01*
X67154988Y-90971959D01*
X67179544Y-90957326D01*
X67223593Y-90931337D01*
X67267972Y-90905903D01*
X67306282Y-90884660D01*
X67324191Y-90875181D01*
X67363704Y-90853817D01*
X67405564Y-90829507D01*
X67425444Y-90817225D01*
X67464049Y-90793175D01*
X67509365Y-90765869D01*
X67556977Y-90737867D01*
X67602472Y-90711728D01*
X67641438Y-90690010D01*
X67669461Y-90675274D01*
X67674016Y-90673085D01*
X67704004Y-90657601D01*
X67730589Y-90641725D01*
X67755126Y-90626168D01*
X67787769Y-90606417D01*
X67824583Y-90584732D01*
X67861634Y-90563376D01*
X67894985Y-90544611D01*
X67920703Y-90530698D01*
X67934852Y-90523899D01*
X67936142Y-90523576D01*
X67946578Y-90518735D01*
X67969842Y-90505554D01*
X68002490Y-90486045D01*
X68041072Y-90462229D01*
X68086867Y-90434271D01*
X68133872Y-90406783D01*
X68175763Y-90383403D01*
X68200072Y-90370729D01*
X68235383Y-90352450D01*
X68267428Y-90334438D01*
X68287687Y-90321652D01*
X68306130Y-90309467D01*
X68334930Y-90291502D01*
X68370351Y-90269969D01*
X68408658Y-90247081D01*
X68446114Y-90225049D01*
X68478983Y-90206086D01*
X68503530Y-90192404D01*
X68516018Y-90186215D01*
X68516679Y-90186067D01*
X68526224Y-90181355D01*
X68549164Y-90168411D01*
X68582414Y-90149020D01*
X68622889Y-90124966D01*
X68638843Y-90115383D01*
X68687083Y-90086485D01*
X68734938Y-90058093D01*
X68777285Y-90033229D01*
X68809002Y-90014914D01*
X68812392Y-90012995D01*
X68868588Y-89981289D01*
X68862411Y-89936370D01*
X68861156Y-89898957D01*
X68864808Y-89849144D01*
X68872436Y-89792910D01*
X68878111Y-89762777D01*
X70173735Y-89762777D01*
X70177116Y-89837007D01*
X70178889Y-89872306D01*
X70180538Y-89898906D01*
X70181758Y-89912043D01*
X70181938Y-89912652D01*
X70190888Y-89916405D01*
X70216233Y-89926759D01*
X70256480Y-89943112D01*
X70310134Y-89964858D01*
X70375702Y-89991392D01*
X70451690Y-90022111D01*
X70536604Y-90056411D01*
X70628950Y-90093685D01*
X70727234Y-90133331D01*
X70761966Y-90147336D01*
X70869957Y-90190882D01*
X70978745Y-90234762D01*
X71085976Y-90278027D01*
X71189295Y-90319726D01*
X71286350Y-90358908D01*
X71374786Y-90394624D01*
X71452249Y-90425923D01*
X71516386Y-90451855D01*
X71562346Y-90470458D01*
X71624824Y-90495755D01*
X71703632Y-90527639D01*
X71797211Y-90565481D01*
X71904006Y-90608654D01*
X72022459Y-90656527D01*
X72151015Y-90708473D01*
X72288116Y-90763863D01*
X72432205Y-90822067D01*
X72581726Y-90882459D01*
X72735122Y-90944408D01*
X72890836Y-91007286D01*
X73047312Y-91070465D01*
X73202993Y-91133315D01*
X73356322Y-91195209D01*
X73505742Y-91255517D01*
X73649697Y-91313610D01*
X73786631Y-91368861D01*
X73914985Y-91420641D01*
X74033204Y-91468320D01*
X74069559Y-91482979D01*
X74158725Y-91518938D01*
X74257720Y-91558874D01*
X74365223Y-91602252D01*
X74479915Y-91648540D01*
X74600474Y-91697204D01*
X74725581Y-91747711D01*
X74853915Y-91799527D01*
X74984156Y-91852119D01*
X75114983Y-91904954D01*
X75245076Y-91957497D01*
X75373114Y-92009217D01*
X75497777Y-92059579D01*
X75617745Y-92108050D01*
X75731697Y-92154096D01*
X75838313Y-92197185D01*
X75936273Y-92236782D01*
X76024256Y-92272355D01*
X76100941Y-92303370D01*
X76165009Y-92329294D01*
X76215138Y-92349593D01*
X76250009Y-92363734D01*
X76268192Y-92371138D01*
X76305742Y-92386163D01*
X76329642Y-92394175D01*
X76343922Y-92395871D01*
X76352613Y-92391945D01*
X76357314Y-92386517D01*
X76369253Y-92371088D01*
X76389190Y-92346090D01*
X76412876Y-92316849D01*
X76413590Y-92315974D01*
X76438610Y-92287162D01*
X76461922Y-92263426D01*
X76478547Y-92249826D01*
X76478758Y-92249703D01*
X76497717Y-92235137D01*
X76521039Y-92212502D01*
X76530287Y-92202293D01*
X76560947Y-92166892D01*
X75339361Y-90048297D01*
X74117775Y-87929702D01*
X74079202Y-87935957D01*
X74052048Y-87938671D01*
X74012509Y-87940573D01*
X73967478Y-87941377D01*
X73949020Y-87941323D01*
X73847486Y-87932005D01*
X73748263Y-87905581D01*
X73649134Y-87861340D01*
X73587403Y-87825068D01*
X73558473Y-87806580D01*
X71866104Y-88784678D01*
X70173735Y-89762777D01*
X68878111Y-89762777D01*
X68883109Y-89736237D01*
X68895898Y-89685104D01*
X68906385Y-89653815D01*
X68953754Y-89558839D01*
X69016778Y-89472013D01*
X69092888Y-89395759D01*
X69179517Y-89332500D01*
X69260024Y-89291779D01*
X69815432Y-89291779D01*
X69821211Y-89304880D01*
X69837370Y-89318664D01*
X69862573Y-89334747D01*
X69890951Y-89351195D01*
X69913330Y-89362565D01*
X69923407Y-89366087D01*
X69933835Y-89361489D01*
X69958941Y-89348278D01*
X69996745Y-89327562D01*
X70045266Y-89300444D01*
X70102523Y-89268031D01*
X70166537Y-89231428D01*
X70222765Y-89199013D01*
X70293229Y-89158312D01*
X70360608Y-89119516D01*
X70422518Y-89083990D01*
X70476576Y-89053097D01*
X70520398Y-89028198D01*
X70551599Y-89010659D01*
X70564703Y-89003465D01*
X70602535Y-88982330D01*
X70641553Y-88959179D01*
X70660713Y-88947151D01*
X70690160Y-88929254D01*
X70729494Y-88906939D01*
X70771331Y-88884368D01*
X70781252Y-88879206D01*
X70827527Y-88854260D01*
X70877762Y-88825511D01*
X70921858Y-88798754D01*
X70925899Y-88796182D01*
X70987913Y-88757573D01*
X71053818Y-88718927D01*
X71129958Y-88676540D01*
X71142869Y-88669514D01*
X71169634Y-88654433D01*
X71207093Y-88632610D01*
X71249512Y-88607410D01*
X71277873Y-88590300D01*
X71316300Y-88567264D01*
X71349613Y-88547864D01*
X71373795Y-88534405D01*
X71383948Y-88529436D01*
X71396617Y-88523009D01*
X71422882Y-88508370D01*
X71459790Y-88487213D01*
X71504386Y-88461227D01*
X71547881Y-88435570D01*
X71642642Y-88379518D01*
X71727904Y-88329407D01*
X71802521Y-88285897D01*
X71865347Y-88249647D01*
X71915238Y-88221319D01*
X71951046Y-88201573D01*
X71971628Y-88191069D01*
X71972965Y-88190485D01*
X71996373Y-88178941D01*
X72025022Y-88162741D01*
X72031547Y-88158766D01*
X72092202Y-88121659D01*
X72146713Y-88089285D01*
X72192474Y-88063138D01*
X72226881Y-88044710D01*
X72245327Y-88036205D01*
X72269925Y-88024456D01*
X72300278Y-88006770D01*
X72312828Y-87998585D01*
X72364187Y-87965254D01*
X72426517Y-87927215D01*
X72493462Y-87888232D01*
X72558667Y-87852068D01*
X72574874Y-87843420D01*
X72611069Y-87823782D01*
X72641797Y-87806177D01*
X72662211Y-87793419D01*
X72666484Y-87790234D01*
X72679380Y-87781482D01*
X72704967Y-87765715D01*
X72739105Y-87745339D01*
X72777656Y-87722757D01*
X72816481Y-87700375D01*
X72851441Y-87680600D01*
X72878399Y-87665835D01*
X72893097Y-87658532D01*
X72904209Y-87652591D01*
X72929004Y-87638479D01*
X72964583Y-87617874D01*
X73008049Y-87592452D01*
X73047387Y-87569279D01*
X73100274Y-87538059D01*
X73152530Y-87507261D01*
X73199738Y-87479487D01*
X73237478Y-87457336D01*
X73254048Y-87447647D01*
X73316061Y-87411482D01*
X73313860Y-87306500D01*
X73318926Y-87195056D01*
X73339295Y-87094402D01*
X73375339Y-87003120D01*
X73408595Y-86946271D01*
X73423615Y-86923773D01*
X73443423Y-86894042D01*
X73453782Y-86878474D01*
X73482643Y-86835080D01*
X72275685Y-84744504D01*
X72168400Y-84558700D01*
X72063599Y-84377251D01*
X71961697Y-84200868D01*
X71863103Y-84030263D01*
X71768230Y-83866145D01*
X71677490Y-83709227D01*
X71591293Y-83560218D01*
X71510053Y-83419830D01*
X71434180Y-83288774D01*
X71364086Y-83167760D01*
X71300184Y-83057499D01*
X71242883Y-82958703D01*
X71192597Y-82872082D01*
X71149737Y-82798346D01*
X71114715Y-82738207D01*
X71087941Y-82692376D01*
X71069829Y-82661563D01*
X71060789Y-82646480D01*
X71059824Y-82645026D01*
X71046076Y-82643280D01*
X71017462Y-82648334D01*
X70976954Y-82659650D01*
X70973945Y-82660600D01*
X70924666Y-82674478D01*
X70869651Y-82687273D01*
X70821117Y-82696165D01*
X70785175Y-82702525D01*
X70757500Y-82709508D01*
X70742922Y-82715832D01*
X70741883Y-82717179D01*
X70740297Y-82727376D01*
X70736125Y-82755977D01*
X70729464Y-82802286D01*
X70720413Y-82865609D01*
X70709070Y-82945252D01*
X70695534Y-83040519D01*
X70679902Y-83150716D01*
X70662272Y-83275147D01*
X70642743Y-83413119D01*
X70621414Y-83563935D01*
X70598381Y-83726902D01*
X70573744Y-83901325D01*
X70547600Y-84086508D01*
X70520048Y-84281758D01*
X70491186Y-84486378D01*
X70461112Y-84699675D01*
X70429924Y-84920953D01*
X70397721Y-85149518D01*
X70364601Y-85384675D01*
X70330661Y-85625729D01*
X70296000Y-85871985D01*
X70279888Y-85986484D01*
X70244904Y-86235107D01*
X70210588Y-86478948D01*
X70177040Y-86717305D01*
X70144359Y-86949479D01*
X70112643Y-87174770D01*
X70081990Y-87392477D01*
X70052500Y-87601901D01*
X70024271Y-87802340D01*
X69997402Y-87993096D01*
X69971992Y-88173466D01*
X69948138Y-88342753D01*
X69925940Y-88500254D01*
X69905497Y-88645271D01*
X69886907Y-88777102D01*
X69870269Y-88895048D01*
X69855681Y-88998409D01*
X69843242Y-89086484D01*
X69833051Y-89158572D01*
X69825206Y-89213975D01*
X69819807Y-89251991D01*
X69816951Y-89271921D01*
X69816524Y-89274791D01*
X69815432Y-89291779D01*
X69260024Y-89291779D01*
X69274097Y-89284661D01*
X69312322Y-89270790D01*
X69336702Y-89260138D01*
X69348601Y-89244362D01*
X69353484Y-89223669D01*
X69355530Y-89209785D01*
X69360090Y-89177988D01*
X69366998Y-89129464D01*
X69376086Y-89065398D01*
X69387186Y-88986977D01*
X69400131Y-88895386D01*
X69414754Y-88791812D01*
X69430887Y-88677439D01*
X69448363Y-88553454D01*
X69467014Y-88421042D01*
X69486673Y-88281390D01*
X69507173Y-88135683D01*
X69528019Y-87987433D01*
X69551251Y-87822181D01*
X69575166Y-87652112D01*
X69599462Y-87479360D01*
X69623840Y-87306055D01*
X69648000Y-87134330D01*
X69671641Y-86966317D01*
X69694464Y-86804147D01*
X69716169Y-86649951D01*
X69736456Y-86505863D01*
X69755024Y-86374013D01*
X69771574Y-86256534D01*
X69785806Y-86155557D01*
X69788570Y-86135953D01*
X69805764Y-86014009D01*
X69823481Y-85888345D01*
X69841320Y-85761807D01*
X69858881Y-85637242D01*
X69875760Y-85517497D01*
X69891558Y-85405419D01*
X69905873Y-85303855D01*
X69918303Y-85215652D01*
X69928447Y-85143656D01*
X69928580Y-85142711D01*
X69942117Y-85046656D01*
X69957570Y-84937062D01*
X69974153Y-84819488D01*
X69991083Y-84699490D01*
X70007577Y-84582628D01*
X70022849Y-84474459D01*
X70029253Y-84429119D01*
X70060424Y-84208406D01*
X70088985Y-84006066D01*
X70115037Y-83821380D01*
X70138681Y-83653625D01*
X70160015Y-83502082D01*
X70179142Y-83366028D01*
X70196160Y-83244744D01*
X70211171Y-83137508D01*
X70224274Y-83043599D01*
X70235571Y-82962296D01*
X70245160Y-82892879D01*
X70253143Y-82834625D01*
X70259620Y-82786815D01*
X70264691Y-82748727D01*
X70268456Y-82719641D01*
X70271016Y-82698835D01*
X70272471Y-82685588D01*
X70272921Y-82679179D01*
X70272814Y-82678324D01*
X70267714Y-82686130D01*
X70253570Y-82709648D01*
X70230963Y-82747880D01*
X70200475Y-82799825D01*
X70162687Y-82864484D01*
X70118180Y-82940857D01*
X70067536Y-83027944D01*
X70011336Y-83124746D01*
X69950161Y-83230263D01*
X69884594Y-83343496D01*
X69815215Y-83463444D01*
X69742605Y-83589108D01*
X69670665Y-83713736D01*
X69624240Y-83794198D01*
X69568604Y-83890617D01*
X69504191Y-84002245D01*
X69431431Y-84128333D01*
X69350755Y-84268136D01*
X69262594Y-84420905D01*
X69167382Y-84585893D01*
X69065547Y-84762353D01*
X68957522Y-84949537D01*
X68843739Y-85146697D01*
X68724628Y-85353087D01*
X68600621Y-85567959D01*
X68472150Y-85790565D01*
X68339645Y-86020159D01*
X68203538Y-86255992D01*
X68064261Y-86497317D01*
X67922244Y-86743386D01*
X67777919Y-86993453D01*
X67631718Y-87246770D01*
X67484072Y-87502589D01*
X67335412Y-87760164D01*
X67186169Y-88018745D01*
X67036775Y-88277587D01*
X66929390Y-88463644D01*
X64787247Y-92175124D01*
X63582992Y-92175124D01*
X63583517Y-92174719D01*
X63649294Y-92131020D01*
X63700785Y-92099621D01*
X63775519Y-92055146D01*
X63775519Y-91978407D01*
X64248033Y-91978407D01*
X64274551Y-91981685D01*
X64293743Y-91984543D01*
X64309672Y-91986977D01*
X64323440Y-91987633D01*
X64336148Y-91985160D01*
X64348896Y-91978203D01*
X64362786Y-91965409D01*
X64378918Y-91945425D01*
X64398393Y-91916899D01*
X64422313Y-91878476D01*
X64451777Y-91828803D01*
X64487888Y-91766528D01*
X64531745Y-91690297D01*
X64580476Y-91605646D01*
X64631334Y-91517489D01*
X64683929Y-91426355D01*
X64736480Y-91335332D01*
X64787202Y-91247506D01*
X64834315Y-91165962D01*
X64876034Y-91093788D01*
X64910579Y-91034069D01*
X64921400Y-91015376D01*
X64958426Y-90951389D01*
X64995782Y-90886749D01*
X65031240Y-90825322D01*
X65062567Y-90770972D01*
X65087533Y-90727567D01*
X65096682Y-90711617D01*
X65108977Y-90690216D01*
X65130203Y-90653350D01*
X65159646Y-90602255D01*
X65196593Y-90538169D01*
X65240329Y-90462326D01*
X65290141Y-90375965D01*
X65345315Y-90280321D01*
X65405137Y-90176631D01*
X65468895Y-90066132D01*
X65535873Y-89950060D01*
X65605359Y-89829651D01*
X65676639Y-89706142D01*
X65748999Y-89580770D01*
X65821725Y-89454772D01*
X65894104Y-89329382D01*
X65965421Y-89205839D01*
X66034964Y-89085379D01*
X66102018Y-88969238D01*
X66165870Y-88858652D01*
X66225806Y-88754859D01*
X66281113Y-88659095D01*
X66331076Y-88572595D01*
X66374983Y-88496598D01*
X66412118Y-88432339D01*
X66441769Y-88381055D01*
X66463223Y-88343982D01*
X66468667Y-88334586D01*
X66504190Y-88273194D01*
X66543432Y-88205199D01*
X66582468Y-88137411D01*
X66617376Y-88076638D01*
X66629810Y-88054935D01*
X66652476Y-88015420D01*
X66683082Y-87962197D01*
X66719907Y-87898250D01*
X66761231Y-87826564D01*
X66805334Y-87750124D01*
X66850495Y-87671913D01*
X66885493Y-87611351D01*
X66933606Y-87528096D01*
X66984918Y-87439249D01*
X67037106Y-87348836D01*
X67087848Y-87260883D01*
X67134822Y-87179416D01*
X67175704Y-87108459D01*
X67194298Y-87076158D01*
X67228427Y-87016918D01*
X67270268Y-86944408D01*
X67317851Y-86862033D01*
X67369205Y-86773203D01*
X67422361Y-86681326D01*
X67475347Y-86589809D01*
X67526194Y-86502061D01*
X67531594Y-86492748D01*
X67577579Y-86413388D01*
X67622091Y-86336477D01*
X67663861Y-86264213D01*
X67701621Y-86198794D01*
X67734102Y-86142420D01*
X67760036Y-86097290D01*
X67778154Y-86065601D01*
X67783629Y-86055939D01*
X67796765Y-86032848D01*
X67818460Y-85994990D01*
X67847604Y-85944286D01*
X67883091Y-85882658D01*
X67923812Y-85812028D01*
X67968661Y-85734318D01*
X68016530Y-85651450D01*
X68066311Y-85565345D01*
X68078165Y-85544853D01*
X68127726Y-85459178D01*
X68175235Y-85377035D01*
X68219649Y-85300232D01*
X68259922Y-85230576D01*
X68295011Y-85169873D01*
X68323869Y-85119933D01*
X68345453Y-85082560D01*
X68358717Y-85059563D01*
X68360812Y-85055922D01*
X68453874Y-84894050D01*
X68547123Y-84732025D01*
X68638716Y-84573040D01*
X68726812Y-84420289D01*
X68809570Y-84276968D01*
X68885148Y-84146268D01*
X68905626Y-84110896D01*
X68956187Y-84023523D01*
X69012640Y-83925861D01*
X69072007Y-83823072D01*
X69131307Y-83720316D01*
X69187561Y-83622755D01*
X69237789Y-83535551D01*
X69247980Y-83517843D01*
X69296437Y-83433686D01*
X69351591Y-83338007D01*
X69410462Y-83235969D01*
X69470069Y-83132733D01*
X69527434Y-83033462D01*
X69579576Y-82943317D01*
X69590300Y-82924791D01*
X69631733Y-82853192D01*
X69671048Y-82785182D01*
X69706965Y-82722981D01*
X69738204Y-82668808D01*
X69763483Y-82624886D01*
X69781523Y-82593434D01*
X69790502Y-82577638D01*
X69806641Y-82549260D01*
X69828709Y-82510986D01*
X69852829Y-82469527D01*
X69861691Y-82454393D01*
X69881821Y-82419623D01*
X69897620Y-82391447D01*
X69906948Y-82373730D01*
X69908549Y-82369765D01*
X69903100Y-82357816D01*
X71439712Y-82357816D01*
X71440612Y-82370799D01*
X71445303Y-82379594D01*
X71451185Y-82389585D01*
X71466290Y-82415572D01*
X71490208Y-82456841D01*
X71522527Y-82512681D01*
X71562836Y-82582379D01*
X71610724Y-82665224D01*
X71665780Y-82760504D01*
X71727591Y-82867505D01*
X71795748Y-82985516D01*
X71869838Y-83113826D01*
X71949451Y-83251721D01*
X72034176Y-83398489D01*
X72123600Y-83553419D01*
X72217314Y-83715799D01*
X72314905Y-83884915D01*
X72415962Y-84060057D01*
X72520075Y-84240511D01*
X72626831Y-84425567D01*
X72676163Y-84511086D01*
X72783841Y-84697755D01*
X72888982Y-84880025D01*
X72991180Y-85057190D01*
X73090029Y-85228547D01*
X73185121Y-85393390D01*
X73276051Y-85551016D01*
X73362412Y-85700720D01*
X73443798Y-85841798D01*
X73519803Y-85973546D01*
X73590020Y-86095259D01*
X73654043Y-86206233D01*
X73711466Y-86305764D01*
X73761883Y-86393147D01*
X73804886Y-86467678D01*
X73840070Y-86528653D01*
X73867028Y-86575367D01*
X73885355Y-86607117D01*
X73894643Y-86623197D01*
X73895771Y-86625142D01*
X73905343Y-86626687D01*
X73930366Y-86629265D01*
X73967059Y-86632519D01*
X74011637Y-86636091D01*
X74012305Y-86636142D01*
X74127878Y-86653681D01*
X74233675Y-86687682D01*
X74329131Y-86737768D01*
X74413681Y-86803562D01*
X74486759Y-86884689D01*
X74547800Y-86980772D01*
X74557161Y-86999013D01*
X74592018Y-87081657D01*
X74613217Y-87164146D01*
X74621959Y-87252532D01*
X74621268Y-87322058D01*
X74612809Y-87409799D01*
X74594819Y-87487123D01*
X74565191Y-87561410D01*
X74538524Y-87611861D01*
X74502357Y-87675051D01*
X75715763Y-89776743D01*
X75823639Y-89963594D01*
X75929169Y-90146387D01*
X76031934Y-90324395D01*
X76131513Y-90496891D01*
X76227486Y-90663146D01*
X76319434Y-90822434D01*
X76406937Y-90974028D01*
X76489576Y-91117200D01*
X76566929Y-91251222D01*
X76638579Y-91375367D01*
X76704104Y-91488908D01*
X76763085Y-91591118D01*
X76815102Y-91681268D01*
X76859736Y-91758633D01*
X76896566Y-91822483D01*
X76925172Y-91872093D01*
X76945136Y-91906734D01*
X76956037Y-91925679D01*
X76957724Y-91928627D01*
X76986279Y-91978818D01*
X77037069Y-91973189D01*
X77067626Y-91968411D01*
X77090423Y-91962324D01*
X77097501Y-91958678D01*
X77098283Y-91948463D01*
X77099059Y-91919866D01*
X77099825Y-91873793D01*
X77100582Y-91811148D01*
X77101327Y-91732837D01*
X77102059Y-91639765D01*
X77102777Y-91532835D01*
X77103479Y-91412954D01*
X77104163Y-91281027D01*
X77104829Y-91137957D01*
X77105474Y-90984651D01*
X77106097Y-90822013D01*
X77106697Y-90650948D01*
X77107272Y-90472360D01*
X77107821Y-90287156D01*
X77108342Y-90096240D01*
X77108833Y-89900516D01*
X77109294Y-89700890D01*
X77109722Y-89498267D01*
X77110117Y-89293551D01*
X77110477Y-89087648D01*
X77110800Y-88881463D01*
X77111084Y-88675900D01*
X77111329Y-88471864D01*
X77111533Y-88270260D01*
X77111694Y-88071994D01*
X77111811Y-87877970D01*
X77111882Y-87689093D01*
X77111907Y-87506269D01*
X77111882Y-87330401D01*
X77111808Y-87162395D01*
X77111682Y-87003156D01*
X77111503Y-86853589D01*
X77111269Y-86714599D01*
X77110979Y-86587091D01*
X77110632Y-86471969D01*
X77110226Y-86370139D01*
X77109760Y-86282505D01*
X77109231Y-86209973D01*
X77108639Y-86153447D01*
X77107982Y-86113833D01*
X77107259Y-86092035D01*
X77107128Y-86090148D01*
X77102366Y-86046511D01*
X77096539Y-86020575D01*
X77089269Y-86010769D01*
X77087973Y-86010592D01*
X77074488Y-86006475D01*
X77048108Y-85995365D01*
X77013068Y-85979120D01*
X76985564Y-85965643D01*
X76892596Y-85908552D01*
X76811723Y-85836858D01*
X76743912Y-85751710D01*
X76690132Y-85654255D01*
X76662046Y-85581473D01*
X76648920Y-85536191D01*
X76640935Y-85493777D01*
X76636906Y-85446169D01*
X76635774Y-85403075D01*
X76635936Y-85356079D01*
X76637300Y-85312018D01*
X76639616Y-85277172D01*
X76641366Y-85263250D01*
X76648102Y-85224677D01*
X74078210Y-83740934D01*
X73872104Y-83621960D01*
X73670320Y-83505526D01*
X73473495Y-83391999D01*
X73282268Y-83281745D01*
X73097278Y-83175132D01*
X72919164Y-83072526D01*
X72748564Y-82974295D01*
X72586117Y-82880804D01*
X72432461Y-82792422D01*
X72288235Y-82709515D01*
X72154077Y-82632450D01*
X72030627Y-82561594D01*
X71918523Y-82497313D01*
X71818403Y-82439976D01*
X71730905Y-82389948D01*
X71656670Y-82347597D01*
X71596335Y-82313289D01*
X71550538Y-82287391D01*
X71519919Y-82270271D01*
X71505116Y-82262296D01*
X71503770Y-82261739D01*
X71496139Y-82271483D01*
X71481015Y-82292084D01*
X71465927Y-82313117D01*
X71447605Y-82340349D01*
X71439712Y-82357816D01*
X69903100Y-82357816D01*
X69902779Y-82357112D01*
X69888218Y-82336464D01*
X69868995Y-82312701D01*
X69849236Y-82290707D01*
X69833068Y-82275364D01*
X69825231Y-82271197D01*
X69816075Y-82276179D01*
X69790863Y-82290444D01*
X69750234Y-82313623D01*
X69694831Y-82345346D01*
X69625295Y-82385245D01*
X69542264Y-82432949D01*
X69446382Y-82488091D01*
X69338287Y-82550300D01*
X69218622Y-82619207D01*
X69088026Y-82694444D01*
X68947141Y-82775640D01*
X68796608Y-82862427D01*
X68637066Y-82954435D01*
X68469158Y-83051295D01*
X68293522Y-83152638D01*
X68110802Y-83258094D01*
X67921636Y-83367295D01*
X67726667Y-83479871D01*
X67526534Y-83595453D01*
X67321879Y-83713671D01*
X67243826Y-83758765D01*
X64673714Y-85243649D01*
X64680255Y-85272736D01*
X64684979Y-85309745D01*
X64686476Y-85359383D01*
X64685018Y-85415312D01*
X64680873Y-85471195D01*
X64674312Y-85520694D01*
X64668542Y-85547722D01*
X64632571Y-85647984D01*
X64581129Y-85741544D01*
X64516370Y-85825879D01*
X64440449Y-85898467D01*
X64355518Y-85956787D01*
X64293088Y-85987268D01*
X64248105Y-86005771D01*
X64248069Y-88992089D01*
X64248033Y-91978407D01*
X63775519Y-91978407D01*
X63775519Y-89023422D01*
X63775519Y-85991698D01*
X63734536Y-85971041D01*
X63639283Y-85912645D01*
X63557162Y-85840645D01*
X63488977Y-85756268D01*
X63435531Y-85660740D01*
X63397625Y-85555288D01*
X63376063Y-85441137D01*
X63374019Y-85420234D01*
X63374752Y-85335485D01*
X63389444Y-85244855D01*
X63416566Y-85153950D01*
X63454587Y-85068377D01*
X63483222Y-85020069D01*
X63526073Y-84965177D01*
X63579872Y-84911050D01*
X63640518Y-84860747D01*
X63703909Y-84817332D01*
X63765946Y-84783866D01*
X63822528Y-84763410D01*
X63828966Y-84761930D01*
X63854825Y-84755670D01*
X63889274Y-84746409D01*
X63909133Y-84740739D01*
X63974331Y-84729309D01*
X64050090Y-84728589D01*
X64131524Y-84737746D01*
X64213745Y-84755944D01*
X64291867Y-84782348D01*
X64361003Y-84816123D01*
X64365305Y-84818696D01*
X64419896Y-84851803D01*
X64654599Y-84716406D01*
X64718983Y-84679332D01*
X64780939Y-84643785D01*
X64837608Y-84611396D01*
X64886132Y-84583794D01*
X64923652Y-84562609D01*
X64947160Y-84549553D01*
X64977892Y-84532386D01*
X65019820Y-84508338D01*
X65067624Y-84480486D01*
X65115987Y-84451910D01*
X65120028Y-84449501D01*
X65162317Y-84424617D01*
X65198841Y-84403760D01*
X65226354Y-84388738D01*
X65241610Y-84381358D01*
X65243324Y-84380903D01*
X65254395Y-84376022D01*
X65277968Y-84362806D01*
X65310352Y-84343392D01*
X65340463Y-84324620D01*
X65386167Y-84296257D01*
X65434746Y-84267061D01*
X65478621Y-84241552D01*
X65496818Y-84231378D01*
X65530282Y-84212622D01*
X65575029Y-84186936D01*
X65625826Y-84157352D01*
X65677441Y-84126903D01*
X65690872Y-84118906D01*
X65735303Y-84092717D01*
X65774078Y-84070471D01*
X65804114Y-84053887D01*
X65822329Y-84044688D01*
X65826096Y-84043394D01*
X65838257Y-84038445D01*
X65860882Y-84025620D01*
X65882763Y-84011792D01*
X65909590Y-83994849D01*
X65948250Y-83971364D01*
X65993795Y-83944303D01*
X66041280Y-83916631D01*
X66046476Y-83913639D01*
X66101952Y-83881617D01*
X66163898Y-83845674D01*
X66224184Y-83810537D01*
X66268268Y-83784706D01*
X66310829Y-83759942D01*
X66349367Y-83738003D01*
X66379770Y-83721200D01*
X66397926Y-83711840D01*
X66398450Y-83711604D01*
X66414179Y-83703371D01*
X66443347Y-83686958D01*
X66482874Y-83664142D01*
X66529682Y-83636698D01*
X66579777Y-83606953D01*
X66629069Y-83577634D01*
X66672496Y-83552052D01*
X66707425Y-83531739D01*
X66731225Y-83518223D01*
X66741265Y-83513035D01*
X66741361Y-83513022D01*
X66750738Y-83508329D01*
X66773594Y-83495418D01*
X66806898Y-83476041D01*
X66847619Y-83451951D01*
X66866456Y-83440698D01*
X66909492Y-83415120D01*
X66946487Y-83393515D01*
X66974385Y-83377639D01*
X66990130Y-83369246D01*
X66992390Y-83368375D01*
X67002038Y-83363669D01*
X67025218Y-83350693D01*
X67058962Y-83331154D01*
X67100298Y-83306765D01*
X67124731Y-83292179D01*
X67173629Y-83263019D01*
X67221061Y-83234992D01*
X67262547Y-83210727D01*
X67293606Y-83192856D01*
X67301332Y-83188516D01*
X67328778Y-83173079D01*
X67367884Y-83150832D01*
X67413625Y-83124640D01*
X67460980Y-83097374D01*
X67465265Y-83094899D01*
X67564982Y-83037270D01*
X67649885Y-82988190D01*
X67721864Y-82946565D01*
X67782806Y-82911299D01*
X67834599Y-82881297D01*
X67879133Y-82855464D01*
X67918296Y-82832706D01*
X67953975Y-82811928D01*
X67988061Y-82792034D01*
X68022440Y-82771930D01*
X68035538Y-82764263D01*
X68081680Y-82737408D01*
X68121823Y-82714349D01*
X68153106Y-82696704D01*
X68172671Y-82686092D01*
X68177881Y-82683713D01*
X68187393Y-82678997D01*
X68210339Y-82666028D01*
X68243674Y-82646569D01*
X68284352Y-82622386D01*
X68302655Y-82611389D01*
X68345585Y-82585748D01*
X68382545Y-82564106D01*
X68410459Y-82548232D01*
X68426247Y-82539895D01*
X68428503Y-82539066D01*
X68438372Y-82534350D01*
X68461745Y-82521347D01*
X68495638Y-82501768D01*
X68537066Y-82477328D01*
X68561516Y-82462713D01*
X68610418Y-82433519D01*
X68657869Y-82405483D01*
X68699392Y-82381232D01*
X68730504Y-82363393D01*
X68738287Y-82359050D01*
X68763317Y-82345009D01*
X68801041Y-82323523D01*
X68847495Y-82296865D01*
X68898714Y-82267308D01*
X68935971Y-82245708D01*
X68996633Y-82210513D01*
X69063430Y-82171831D01*
X69129682Y-82133527D01*
X69188708Y-82099466D01*
X69209422Y-82087536D01*
X69266364Y-82054693D01*
X69329528Y-82018143D01*
X69391344Y-81982271D01*
X69444239Y-81951467D01*
X69445679Y-81950626D01*
X69493302Y-81922855D01*
X69540830Y-81895212D01*
X69582735Y-81870910D01*
X69613318Y-81853256D01*
X69670061Y-81820653D01*
X69668411Y-81724222D01*
X69669200Y-81709372D01*
X70111290Y-81709372D01*
X70113096Y-81774471D01*
X70119168Y-81827573D01*
X70131054Y-81875778D01*
X70150303Y-81926184D01*
X70166050Y-81960478D01*
X70203116Y-82022331D01*
X70253622Y-82084660D01*
X70312558Y-82142318D01*
X70374916Y-82190161D01*
X70409992Y-82211027D01*
X70505603Y-82250666D01*
X70606222Y-82272562D01*
X70708877Y-82276360D01*
X70810596Y-82261707D01*
X70818899Y-82259652D01*
X70908940Y-82229449D01*
X70988099Y-82186599D01*
X71061497Y-82128172D01*
X71080340Y-82109997D01*
X71146743Y-82031014D01*
X71196544Y-81944796D01*
X71229949Y-81853461D01*
X71247161Y-81759129D01*
X71248382Y-81663918D01*
X71233817Y-81569946D01*
X71203670Y-81479333D01*
X71158143Y-81394196D01*
X71097440Y-81316656D01*
X71021765Y-81248830D01*
X70995843Y-81230472D01*
X70921791Y-81187026D01*
X70849026Y-81158094D01*
X70771643Y-81141952D01*
X70683737Y-81136876D01*
X70675178Y-81136903D01*
X70574753Y-81144364D01*
X70485165Y-81166071D01*
X70403250Y-81203367D01*
X70325841Y-81257596D01*
X70270166Y-81308843D01*
X70205918Y-81384464D01*
X70158999Y-81464890D01*
X70128462Y-81552510D01*
X70113359Y-81649713D01*
X70111290Y-81709372D01*
X69669200Y-81709372D01*
X69675110Y-81598135D01*
X69698657Y-81469634D01*
X69737888Y-81343202D01*
X69791641Y-81223324D01*
X69804298Y-81200056D01*
X69834808Y-81153911D01*
X69877449Y-81100656D01*
X69928488Y-81044144D01*
X69984189Y-80988227D01*
X70040817Y-80936760D01*
X70094637Y-80893595D01*
X70115876Y-80878619D01*
X70235072Y-80810062D01*
X70360642Y-80759144D01*
X70490839Y-80726014D01*
X70623912Y-80710821D01*
X70758111Y-80713712D01*
G37*
%TO.C,D2*%
D12*
X95752500Y-115542500D02*
X95752500Y-111532500D01*
X95752500Y-115542500D02*
X97752500Y-115542500D01*
X97752500Y-115542500D02*
X97752500Y-111532500D01*
%TO.C,R12*%
X103355000Y-109318641D02*
X103355000Y-109011359D01*
X104115000Y-109318641D02*
X104115000Y-109011359D01*
%TO.C,Q3*%
X87386312Y-100126985D02*
X88093419Y-99419879D01*
X88461115Y-101201788D02*
X87386312Y-100126985D01*
X88496470Y-101166432D02*
X88461115Y-101201788D01*
X88885379Y-98627919D02*
X89592485Y-97920812D01*
X89592485Y-97920812D02*
X90667288Y-98995615D01*
X89839973Y-99822930D02*
X89288430Y-100374473D01*
X90667288Y-98995615D02*
X90631932Y-99030970D01*
X89677338Y-100749239D02*
X89740978Y-100346189D01*
X90080389Y-100685600D01*
X89677338Y-100749239D01*
G36*
X90080389Y-100685600D02*
G01*
X89677338Y-100749239D01*
X89740978Y-100346189D01*
X90080389Y-100685600D01*
G37*
%TO.C,R14*%
X93556225Y-94075227D02*
X93319173Y-93838175D01*
X94093627Y-93537825D02*
X93856575Y-93300773D01*
%TO.C,C11*%
X106459420Y-83270000D02*
X106740580Y-83270000D01*
X106459420Y-84290000D02*
X106740580Y-84290000D01*
%TO.C,R13*%
X91212773Y-98920175D02*
X91449825Y-99157227D01*
X91750175Y-98382773D02*
X91987227Y-98619825D01*
%TO.C,C7*%
X78189790Y-94621093D02*
X78342293Y-94468590D01*
X78698907Y-95130210D02*
X78851410Y-94977707D01*
%TO.C,U6*%
X99975000Y-111702500D02*
X101795000Y-111702500D01*
X99975000Y-111752500D02*
X99975000Y-111702500D01*
X99975000Y-114822500D02*
X99975000Y-114772500D01*
X101795000Y-111702500D02*
X101795000Y-111752500D01*
X101795000Y-112872500D02*
X101795000Y-113652500D01*
X101795000Y-114772500D02*
X101795000Y-114822500D01*
X101795000Y-114822500D02*
X99975000Y-114822500D01*
X99435000Y-111752500D02*
X99195000Y-111422500D01*
X99675000Y-111422500D01*
X99435000Y-111752500D01*
G36*
X99435000Y-111752500D02*
G01*
X99195000Y-111422500D01*
X99675000Y-111422500D01*
X99435000Y-111752500D01*
G37*
%TO.C,U1*%
X96960000Y-74080000D02*
X97435000Y-74080000D01*
X96960000Y-74555000D02*
X96960000Y-74080000D01*
X96960000Y-79300000D02*
X96960000Y-78825000D01*
X97435000Y-79300000D02*
X96960000Y-79300000D01*
X101705000Y-74080000D02*
X102180000Y-74080000D01*
X102180000Y-74080000D02*
X102180000Y-74555000D01*
X102180000Y-78825000D02*
X102180000Y-79300000D01*
X102180000Y-79300000D02*
X101705000Y-79300000D01*
X102680000Y-78440000D02*
X103010000Y-78200000D01*
X103010000Y-78680000D01*
X102680000Y-78440000D01*
G36*
X103010000Y-78680000D02*
G01*
X102680000Y-78440000D01*
X103010000Y-78200000D01*
X103010000Y-78680000D01*
G37*
%TO.C,R15*%
X86403641Y-162920000D02*
X86096359Y-162920000D01*
X86403641Y-163680000D02*
X86096359Y-163680000D01*
%TO.C,C5*%
X85452802Y-101535949D02*
X85245949Y-101742802D01*
X86174051Y-102257198D02*
X85967198Y-102464051D01*
%TO.C,R7*%
X94535000Y-106388641D02*
X94535000Y-106081359D01*
X95295000Y-106388641D02*
X95295000Y-106081359D01*
%TO.C,C8*%
X101922164Y-72360000D02*
X102137836Y-72360000D01*
X101922164Y-73080000D02*
X102137836Y-73080000D01*
%TO.C,Y3*%
X88424287Y-95814693D02*
X90842593Y-93396387D01*
X90842593Y-93396387D02*
X87929313Y-90483107D01*
%TO.C,C6*%
X83052164Y-93280000D02*
X83267836Y-93280000D01*
X83052164Y-94000000D02*
X83267836Y-94000000D01*
%TO.C,Q4*%
X89836112Y-96002285D02*
X90543219Y-95295179D01*
X90910915Y-97077088D02*
X89836112Y-96002285D01*
X90946270Y-97041732D02*
X90910915Y-97077088D01*
X91335179Y-94503219D02*
X92042285Y-93796112D01*
X92042285Y-93796112D02*
X93117088Y-94870915D01*
X92289773Y-95698230D02*
X91738230Y-96249773D01*
X93117088Y-94870915D02*
X93081732Y-94906270D01*
X92127138Y-96624539D02*
X92190778Y-96221489D01*
X92530189Y-96560900D01*
X92127138Y-96624539D01*
G36*
X92530189Y-96560900D02*
G01*
X92127138Y-96624539D01*
X92190778Y-96221489D01*
X92530189Y-96560900D01*
G37*
%TO.C,C1*%
X80089190Y-94511693D02*
X80241693Y-94359190D01*
X80598307Y-95020810D02*
X80750810Y-94868307D01*
%TO.C,C4*%
X83731693Y-103870810D02*
X83579190Y-103718307D01*
X84240810Y-103361693D02*
X84088307Y-103209190D01*
%TO.C,C2*%
X79651693Y-101260810D02*
X79499190Y-101108307D01*
X80160810Y-100751693D02*
X80008307Y-100599190D01*
%TO.C,U2*%
X79410803Y-98280000D02*
X79746678Y-97944124D01*
X79746678Y-98615876D02*
X79410803Y-98280000D01*
X82766024Y-94924778D02*
X83101900Y-94588903D01*
X83101900Y-94588903D02*
X83437776Y-94924778D01*
X83101900Y-101971097D02*
X82766024Y-101635222D01*
X83437776Y-101635222D02*
X83101900Y-101971097D01*
X86457122Y-97944124D02*
X86792997Y-98280000D01*
X86792997Y-98280000D02*
X86457122Y-98615876D01*
X82140235Y-94843461D02*
X81737184Y-94779821D01*
X82076595Y-94440410D01*
X82140235Y-94843461D01*
G36*
X82140235Y-94843461D02*
G01*
X81737184Y-94779821D01*
X82076595Y-94440410D01*
X82140235Y-94843461D01*
G37*
%TO.C,U5*%
X97245000Y-105075000D02*
X101365000Y-105075000D01*
X97245000Y-105170000D02*
X97245000Y-105075000D01*
X97245000Y-110195000D02*
X97245000Y-110100000D01*
X101365000Y-105075000D02*
X101365000Y-105170000D01*
X101365000Y-110100000D02*
X101365000Y-110195000D01*
X101365000Y-110195000D02*
X97245000Y-110195000D01*
X96705000Y-105165000D02*
X96465000Y-104835000D01*
X96945000Y-104835000D01*
X96705000Y-105165000D01*
G36*
X96705000Y-105165000D02*
G01*
X96465000Y-104835000D01*
X96945000Y-104835000D01*
X96705000Y-105165000D01*
G37*
%TO.C,C25*%
X101902164Y-71320000D02*
X102117836Y-71320000D01*
X101902164Y-72040000D02*
X102117836Y-72040000D01*
%TD*%
%LPC*%
D14*
%TO.C,R16*%
X83740000Y-163290000D03*
X83740000Y-164310000D03*
%TD*%
D15*
%TO.C,Q2*%
X91167500Y-108445000D03*
X91167500Y-110345000D03*
X93042500Y-109395000D03*
%TD*%
D16*
%TO.C,C29*%
X99940000Y-71875000D03*
X99940000Y-72515000D03*
%TD*%
D17*
%TO.C,R1*%
X78842496Y-96277504D03*
X77997504Y-97122496D03*
%TD*%
D18*
%TO.C,R11*%
X103725000Y-107715000D03*
X103725000Y-106695000D03*
%TD*%
D19*
%TO.C,C10*%
X103660000Y-77920000D03*
X103660000Y-78880000D03*
%TD*%
D20*
%TO.C,C12*%
X106778008Y-79801992D03*
X105681992Y-80898008D03*
%TD*%
D21*
%TO.C,Y2*%
X104260000Y-74230000D03*
X104260000Y-76430000D03*
X105960000Y-76430000D03*
X105960000Y-74230000D03*
%TD*%
D22*
%TO.C,D2*%
X96752500Y-114832500D03*
X96752500Y-111532500D03*
%TD*%
D23*
%TO.C,C31*%
X95060000Y-75190000D03*
X95700000Y-75190000D03*
%TD*%
D18*
%TO.C,R12*%
X103735000Y-109675000D03*
X103735000Y-108655000D03*
%TD*%
D24*
%TO.C,Q3*%
X89017961Y-100895964D03*
X90361464Y-99552461D03*
X88363887Y-98898387D03*
%TD*%
D25*
%TO.C,R14*%
X94128896Y-94110496D03*
X93283904Y-93265504D03*
%TD*%
D23*
%TO.C,C26*%
X95060000Y-75980000D03*
X95700000Y-75980000D03*
%TD*%
D26*
%TO.C,C11*%
X105825000Y-83780000D03*
X107375000Y-83780000D03*
%TD*%
D27*
%TO.C,R13*%
X91177504Y-98347504D03*
X92022496Y-99192496D03*
%TD*%
D28*
%TO.C,C7*%
X78181189Y-95138811D03*
X78860011Y-94459989D03*
%TD*%
D29*
%TO.C,U6*%
X99747500Y-112312500D03*
X99747500Y-113262500D03*
X99747500Y-114212500D03*
X102022500Y-114212500D03*
X102022500Y-112312500D03*
%TD*%
D30*
%TO.C,U1*%
X102020000Y-78440000D03*
X102020000Y-77940000D03*
X102020000Y-77440000D03*
X102020000Y-76940000D03*
X102020000Y-76440000D03*
X102020000Y-75940000D03*
X102020000Y-75440000D03*
X102020000Y-74940000D03*
D31*
X101320000Y-74240000D03*
X100820000Y-74240000D03*
X100320000Y-74240000D03*
X99820000Y-74240000D03*
X99320000Y-74240000D03*
X98820000Y-74240000D03*
X98320000Y-74240000D03*
X97820000Y-74240000D03*
D30*
X97120000Y-74940000D03*
X97120000Y-75440000D03*
X97120000Y-75940000D03*
X97120000Y-76440000D03*
X97120000Y-76940000D03*
X97120000Y-77440000D03*
X97120000Y-77940000D03*
X97120000Y-78440000D03*
D31*
X97820000Y-79140000D03*
X98320000Y-79140000D03*
X98820000Y-79140000D03*
X99320000Y-79140000D03*
X99820000Y-79140000D03*
X100320000Y-79140000D03*
X100820000Y-79140000D03*
X101320000Y-79140000D03*
D32*
X99570000Y-76690000D03*
%TD*%
D33*
%TO.C,C27*%
X96756274Y-73453726D03*
X96303726Y-73906274D03*
%TD*%
D34*
%TO.C,R15*%
X86760000Y-163300000D03*
X85740000Y-163300000D03*
%TD*%
D35*
%TO.C,C5*%
X86319880Y-101390120D03*
X85100120Y-102609880D03*
%TD*%
D18*
%TO.C,R7*%
X94915000Y-106745000D03*
X94915000Y-105725000D03*
%TD*%
D36*
%TO.C,C8*%
X101550000Y-72720000D03*
X102510000Y-72720000D03*
%TD*%
D37*
%TO.C,L2*%
X91200000Y-73000000D03*
X89480000Y-73000000D03*
%TD*%
D16*
%TO.C,C34*%
X95760000Y-77590000D03*
X95760000Y-78230000D03*
%TD*%
D38*
%TO.C,Y3*%
X89555658Y-93325677D03*
X88000023Y-91770042D03*
X86797942Y-92972123D03*
X88353577Y-94527758D03*
%TD*%
D37*
%TO.C,L1*%
X91200000Y-75380000D03*
X89480000Y-75380000D03*
%TD*%
D36*
%TO.C,C6*%
X82680000Y-93640000D03*
X83640000Y-93640000D03*
%TD*%
D16*
%TO.C,C32*%
X97500000Y-71875000D03*
X97500000Y-72515000D03*
%TD*%
%TO.C,C33*%
X99130000Y-71875000D03*
X99130000Y-72515000D03*
%TD*%
D23*
%TO.C,C30*%
X95070000Y-76780000D03*
X95710000Y-76780000D03*
%TD*%
D16*
%TO.C,C28*%
X98320000Y-71875000D03*
X98320000Y-72515000D03*
%TD*%
D24*
%TO.C,Q4*%
X91467761Y-96771264D03*
X92811264Y-95427761D03*
X90813687Y-94773687D03*
%TD*%
D28*
%TO.C,C1*%
X80080589Y-95029411D03*
X80759411Y-94350589D03*
%TD*%
D39*
%TO.C,C4*%
X84249411Y-103879411D03*
X83570589Y-103200589D03*
%TD*%
%TO.C,C2*%
X80169411Y-101269411D03*
X79490589Y-100590589D03*
%TD*%
D40*
%TO.C,U2*%
X82606925Y-95310152D03*
X82253372Y-95663705D03*
X81899818Y-96017258D03*
X81546265Y-96370812D03*
X81192712Y-96724365D03*
X80839158Y-97077918D03*
X80485605Y-97431472D03*
X80132052Y-97785025D03*
D41*
X80132052Y-98774975D03*
X80485605Y-99128528D03*
X80839158Y-99482082D03*
X81192712Y-99835635D03*
X81546265Y-100189188D03*
X81899818Y-100542742D03*
X82253372Y-100896295D03*
X82606925Y-101249848D03*
D40*
X83596875Y-101249848D03*
X83950428Y-100896295D03*
X84303982Y-100542742D03*
X84657535Y-100189188D03*
X85011088Y-99835635D03*
X85364642Y-99482082D03*
X85718195Y-99128528D03*
X86071748Y-98774975D03*
D41*
X86071748Y-97785025D03*
X85718195Y-97431472D03*
X85364642Y-97077918D03*
X85011088Y-96724365D03*
X84657535Y-96370812D03*
X84303982Y-96017258D03*
X83950428Y-95663705D03*
X83596875Y-95310152D03*
D42*
X83101900Y-98280000D03*
%TD*%
D43*
%TO.C,U5*%
X96830000Y-105730000D03*
X96830000Y-107000000D03*
X96830000Y-108270000D03*
X96830000Y-109540000D03*
X101780000Y-109540000D03*
X101780000Y-108270000D03*
X101780000Y-107000000D03*
X101780000Y-105730000D03*
D44*
X99305000Y-107635000D03*
%TD*%
D36*
%TO.C,C25*%
X101530000Y-71680000D03*
X102490000Y-71680000D03*
%TD*%
D45*
%TO.C,BT1*%
X54310000Y-164670000D03*
D46*
X50610000Y-164670000D03*
%TD*%
D47*
%TO.C,J2*%
X88370200Y-163235000D03*
X82590200Y-163235000D03*
D48*
X89800200Y-166915000D03*
D49*
X89800200Y-162735000D03*
D48*
X81160200Y-166915000D03*
D49*
X81160200Y-162735000D03*
%TD*%
%LPD*%
M02*
