M48
INCH
T1C0.0079
T2C0.0118
T3C0.0118
T4C0.0236
T5C0.0276
%
G90
G05
T1
X3.8821Y-4.1904
X3.8821Y-4.2376
X3.8821Y-4.2848
X3.9372Y-4.1904
X3.9372Y-4.2376
X3.9372Y-4.2848
T2
X2.5091Y-2.635
X3.1211Y-3.8476
X3.1342Y-3.7663
X3.1766Y-3.962
X3.2007Y-3.7531
X3.2173Y-4.0015
X3.2667Y-4.0077
X3.2986Y-3.8868
X3.3274Y-4.123
X3.3302Y-6.4287
X3.3817Y-4.1424
X3.3946Y-4.0363
X3.3969Y-5.1567
X3.3984Y-3.9917
X3.4113Y-6.3409
X3.4217Y-3.3246
X3.4937Y-5.6843
X3.5207Y-3.0164
X3.5228Y-2.874
X3.5399Y-6.2715
X3.5819Y-5.6551
X3.5912Y-6.3802
X3.6341Y-2.9597
X3.6523Y-3.9365
X3.6872Y-5.6835
X3.7425Y-2.9293
X3.789Y-5.4213
X3.8242Y-3.748
X3.9102Y-3.3886
X3.9358Y-3.4321
X3.9595Y-3.501
X3.967Y-4.3717
X3.9747Y-3.1524
X3.9771Y-2.7825
X4.0071Y-4.389
X4.0113Y-3.1581
X4.0614Y-2.9263
X4.0668Y-4.3487
X4.1063Y-3.3157
X4.1505Y-3.08
X4.2378Y-3.1114
T3
X1.826Y-1.9043
X3.863Y-2.9622
X3.863Y-3.0193
X3.863Y-3.0764
X3.9201Y-2.9622
X3.9201Y-3.0193
X3.9201Y-3.0764
X3.9772Y-2.9622
X3.9772Y-3.0193
X3.9772Y-3.0764
T5
X1.9925Y-6.4831
X2.1382Y-6.4831
T4
G00X3.1953Y-6.4285
M15
G01X3.1953Y-6.3852
M16
G05
G00X3.1953Y-6.5872
M15
G01X3.1953Y-6.5557
M16
G05
G00X3.5354Y-6.4285
M15
G01X3.5354Y-6.3852
M16
G05
G00X3.5354Y-6.5872
M15
G01X3.5354Y-6.5557
M16
G05
M30
