%TF.GenerationSoftware,KiCad,Pcbnew,10.0.2*%
%TF.CreationDate,2026-07-01T19:27:33+03:00*%
%TF.ProjectId,Transit stealer,5472616e-7369-4742-9073-7465616c6572,rev?*%
%TF.SameCoordinates,Original*%
%TF.FileFunction,Copper,L2,Bot*%
%TF.FilePolarity,Positive*%
%FSLAX46Y46*%
G04 Gerber Fmt 4.6, Leading zero omitted, Abs format (unit mm)*
G04 Created by KiCad (PCBNEW 10.0.2) date 2026-07-01 19:27:33*
%MOMM*%
%LPD*%
G01*
G04 APERTURE LIST*
G04 Aperture macros list*
%AMRoundRect*
0 Rectangle with rounded corners*
0 $1 Rounding radius*
0 $2 $3 $4 $5 $6 $7 $8 $9 X,Y pos of 4 corners*
0 Add a 4 corners polygon primitive as box body*
4,1,4,$2,$3,$4,$5,$6,$7,$8,$9,$2,$3,0*
0 Add four circle primitives for the rounded corners*
1,1,$1+$1,$2,$3*
1,1,$1+$1,$4,$5*
1,1,$1+$1,$6,$7*
1,1,$1+$1,$8,$9*
0 Add four rect primitives between the rounded corners*
20,1,$1+$1,$2,$3,$4,$5,0*
20,1,$1+$1,$4,$5,$6,$7,0*
20,1,$1+$1,$6,$7,$8,$9,0*
20,1,$1+$1,$8,$9,$2,$3,0*%
G04 Aperture macros list end*
%TA.AperFunction,ComponentPad*%
%ADD10R,1.694401X1.238432*%
%TD*%
%TA.AperFunction,HeatsinkPad*%
%ADD11C,0.600000*%
%TD*%
%TA.AperFunction,HeatsinkPad*%
%ADD12R,3.500000X3.500000*%
%TD*%
%TA.AperFunction,HeatsinkPad*%
%ADD13C,0.500000*%
%TD*%
%TA.AperFunction,HeatsinkPad*%
%ADD14R,1.900000X2.900000*%
%TD*%
%TA.AperFunction,ComponentPad*%
%ADD15RoundRect,0.250000X0.600000X0.600000X-0.600000X0.600000X-0.600000X-0.600000X0.600000X-0.600000X0*%
%TD*%
%TA.AperFunction,ComponentPad*%
%ADD16C,1.700000*%
%TD*%
%TA.AperFunction,SMDPad,CuDef*%
%ADD17RoundRect,0.140000X-0.170000X0.140000X-0.170000X-0.140000X0.170000X-0.140000X0.170000X0.140000X0*%
%TD*%
%TA.AperFunction,SMDPad,CuDef*%
%ADD18RoundRect,0.150000X0.150000X0.425000X-0.150000X0.425000X-0.150000X-0.425000X0.150000X-0.425000X0*%
%TD*%
%TA.AperFunction,SMDPad,CuDef*%
%ADD19RoundRect,0.075000X0.075000X0.500000X-0.075000X0.500000X-0.075000X-0.500000X0.075000X-0.500000X0*%
%TD*%
%TA.AperFunction,ComponentPad*%
%ADD20O,1.000000X1.800000*%
%TD*%
%TA.AperFunction,ComponentPad*%
%ADD21O,1.000000X2.100000*%
%TD*%
%TA.AperFunction,ViaPad*%
%ADD22C,0.600000*%
%TD*%
%TA.AperFunction,Conductor*%
%ADD23C,0.200000*%
%TD*%
%TA.AperFunction,Conductor*%
%ADD24C,0.500000*%
%TD*%
G04 APERTURE END LIST*
D10*
%TO.P,Antena,2*%
%TO.N,Net-(U1-RFI2)*%
X46363590Y-48377654D03*
%TD*%
D11*
%TO.P,U1,33,EP_33*%
%TO.N,GND*%
X101020000Y-78140000D03*
X101020000Y-76690000D03*
X101020000Y-75240000D03*
X99570000Y-78140000D03*
X99570000Y-76690000D03*
D12*
X99570000Y-76690000D03*
D11*
X99570000Y-75240000D03*
X98120000Y-78140000D03*
X98120000Y-76690000D03*
X98120000Y-75240000D03*
%TD*%
D13*
%TO.P,U5,9,EPAD_9*%
%TO.N,GND*%
X98605000Y-106435000D03*
X98605000Y-107635000D03*
X98605000Y-108835000D03*
D14*
X99305000Y-107635000D03*
D13*
X100005000Y-106435000D03*
X100005000Y-107635000D03*
X100005000Y-108835000D03*
%TD*%
D15*
%TO.P,BT1,1,+_1*%
%TO.N,Net-(BT1-+)*%
X54310000Y-164670000D03*
D16*
%TO.P,BT1,2,-_2*%
%TO.N,Net-(BT1--)*%
X50610000Y-164670000D03*
%TD*%
D17*
%TO.P,C9,1*%
%TO.N,Net-(U1-VSP_A)*%
X101660000Y-75660000D03*
%TO.P,C9,2*%
%TO.N,Net-(C11-Pad1)*%
X101660000Y-76620000D03*
%TD*%
D18*
%TO.P,J2,A1,GND_A1*%
%TO.N,GND*%
X88680200Y-162160000D03*
%TO.P,J2,A4,VBUS_A4*%
%TO.N,VBUS*%
X87880200Y-162160000D03*
D19*
%TO.P,J2,A5,CC1_A5*%
%TO.N,Net-(J2-CC1)*%
X86730200Y-162160000D03*
%TO.P,J2,A6,D+_A6*%
%TO.N,/D+*%
X85730200Y-162160000D03*
%TO.P,J2,A7,D-_A7*%
%TO.N,/D-*%
X85230200Y-162160000D03*
%TO.P,J2,A8,SBU1_A8*%
%TO.N,unconnected-(J2-SBU1-PadA8)*%
X84230200Y-162160000D03*
D18*
%TO.P,J2,A9,VBUS_A9*%
%TO.N,VBUS*%
X83080200Y-162160000D03*
%TO.P,J2,A12,GND_A12*%
%TO.N,GND*%
X82280200Y-162160000D03*
%TO.P,J2,B1,GND_B1*%
X82280200Y-162160000D03*
%TO.P,J2,B4,VBUS_B4*%
%TO.N,VBUS*%
X83080200Y-162160000D03*
D19*
%TO.P,J2,B5,CC2_B5*%
%TO.N,Net-(J2-CC2)*%
X83730200Y-162160000D03*
%TO.P,J2,B6,D+_B6*%
%TO.N,unconnected-(J2-D+-PadB6)*%
X84730200Y-162160000D03*
%TO.P,J2,B7,D-_B7*%
%TO.N,unconnected-(J2-D--PadB7)*%
X86230200Y-162160000D03*
%TO.P,J2,B8,SBU2_B8*%
%TO.N,unconnected-(J2-SBU2-PadB8)*%
X87230200Y-162160000D03*
D18*
%TO.P,J2,B9,VBUS_B9*%
%TO.N,VBUS*%
X87880200Y-162160000D03*
%TO.P,J2,B12,GND_B12*%
%TO.N,GND*%
X88680200Y-162160000D03*
D20*
%TO.P,J2,SH,SHIELD_SH*%
X89800200Y-166915000D03*
D21*
X89800200Y-162735000D03*
D20*
X81160200Y-166915000D03*
D21*
X81160200Y-162735000D03*
%TD*%
D22*
%TO.N,Net-(U1-RFI2)*%
X89480000Y-73000000D03*
%TO.N,Net-(BT1-+)*%
X90980000Y-143640000D03*
%TO.N,/D-*%
X86280000Y-130980000D03*
%TO.N,GND*%
X91216685Y-162056685D03*
X93654900Y-144360000D03*
%TO.N,/D+*%
X88740000Y-144380000D03*
%TO.N,VBUS*%
X96240000Y-137700000D03*
%TO.N,Net-(J2-CC2)*%
X84586600Y-163290000D03*
%TO.N,GND*%
X86910000Y-84445000D03*
X85894600Y-105216300D03*
X95060000Y-74403400D03*
%TO.N,+3.3V*%
X79607600Y-95663600D03*
X92767900Y-99988200D03*
X84516700Y-104723100D03*
%TO.N,VBUS*%
X100762200Y-111040200D03*
X103296000Y-110456200D03*
%TO.N,Net-(C10-Pad2)*%
X107640000Y-79030000D03*
X105421619Y-78231619D03*
%TO.N,Net-(C11-Pad1)*%
X104300000Y-84220000D03*
%TO.N,Net-(U1-RFI1)*%
X89426900Y-76617100D03*
X63730000Y-66930000D03*
%TO.N,Net-(U1-VSP_A)*%
X103160000Y-74328711D03*
%TO.N,Net-(U1-RFO1)*%
X92305700Y-75176000D03*
X101017800Y-70676100D03*
%TO.N,/IRQ*%
X86221600Y-102522600D03*
X97134800Y-95199900D03*
%TO.N,/MCU_CLK*%
X99320000Y-86069500D03*
X79276300Y-97730000D03*
%TO.N,/MISO*%
X81719600Y-101638500D03*
X99968200Y-87174700D03*
%TO.N,/MOSI*%
X82973800Y-101795200D03*
X100572000Y-88926300D03*
%TO.N,/SCLK*%
X80685665Y-100634335D03*
X100958100Y-80070300D03*
%TO.N,/{slash}SS*%
X101886400Y-80215000D03*
X81297800Y-95327700D03*
%TO.N,Net-(J2-CC1)*%
X86648000Y-161057900D03*
%TO.N,Net-(U2-GND)*%
X83784785Y-98724785D03*
X86319880Y-101390120D03*
%TO.N,/D+*%
X89914000Y-159296400D03*
%TO.N,Net-(BT1--)*%
X101780000Y-111481700D03*
%TD*%
%TO.N,Net-(U1-RFI2)*%
D23*
X89480000Y-54407700D02*
X89480000Y-73000000D01*
%TO.N,Net-(BT1-+)*%
X69950000Y-164670000D02*
X54310000Y-164670000D01*
X90980000Y-143640000D02*
X69950000Y-164670000D01*
%TO.N,/D-*%
X91170000Y-165060000D02*
X97280000Y-158950000D01*
X86160000Y-165060000D02*
X91170000Y-165060000D01*
X85230200Y-164130200D02*
X86160000Y-165060000D01*
X94680000Y-130980000D02*
X86280000Y-130980000D01*
X97280000Y-133580000D02*
X94680000Y-130980000D01*
X85230200Y-162160000D02*
X85230200Y-164130200D01*
X97280000Y-158950000D02*
X97280000Y-133580000D01*
%TO.N,GND*%
D24*
X93654900Y-144360000D02*
X93654900Y-159618473D01*
X93654900Y-159618473D02*
X91216688Y-162056685D01*
X91216688Y-162056685D02*
X91216685Y-162056685D01*
%TO.N,/D+*%
D23*
X90601900Y-163668400D02*
X90601900Y-163520000D01*
X96840000Y-137451471D02*
X96840000Y-157281900D01*
X88740000Y-144380000D02*
X88740000Y-144351471D01*
X88740000Y-144351471D02*
X95991471Y-137100000D01*
X96488529Y-137100000D02*
X96840000Y-137451471D01*
X95991471Y-137100000D02*
X96488529Y-137100000D01*
X96840000Y-157281900D02*
X90601900Y-163520000D01*
%TO.N,VBUS*%
D24*
X96240000Y-137700000D02*
X92904900Y-141035100D01*
X92904900Y-141035100D02*
X92904900Y-155424900D01*
%TO.N,Net-(J2-CC2)*%
D23*
X83730200Y-162160000D02*
X83730200Y-162770000D01*
X84250200Y-163290000D02*
X84586600Y-163290000D01*
X83730200Y-162770000D02*
X84250200Y-163290000D01*
%TO.N,GND*%
D24*
X95896600Y-75240000D02*
X95060000Y-74403400D01*
X89800200Y-166915000D02*
X89800200Y-165713300D01*
X89800200Y-162735000D02*
X89800200Y-161383300D01*
X81160200Y-162735000D02*
X81160200Y-161383300D01*
X98120000Y-78140000D02*
X99570000Y-78140000D01*
X100005000Y-107635000D02*
X99305000Y-107635000D01*
X98605000Y-106435000D02*
X87113300Y-106435000D01*
X81503500Y-161383300D02*
X82280200Y-162160000D01*
X81160200Y-161383300D02*
X81503500Y-161383300D01*
X89456900Y-161383300D02*
X88680200Y-162160000D01*
X89800200Y-165713300D02*
X81160200Y-165713300D01*
X101020000Y-78140000D02*
X99570000Y-78140000D01*
X99305000Y-107635000D02*
X98605000Y-107635000D01*
X89800200Y-161383300D02*
X89456900Y-161383300D01*
X87113300Y-106435000D02*
X85894600Y-105216300D01*
X81160200Y-166915000D02*
X81160200Y-165713300D01*
X98120000Y-75240000D02*
X95896600Y-75240000D01*
%TO.N,+3.3V*%
X92767900Y-99988200D02*
X88141500Y-104614600D01*
X84625200Y-104614600D02*
X84516700Y-104723100D01*
X79607600Y-95663600D02*
X78230800Y-97040400D01*
X83020000Y-104700000D02*
X83902800Y-104700000D01*
X78230800Y-99910800D02*
X83020000Y-104700000D01*
X88141500Y-104614600D02*
X84625200Y-104614600D01*
X83925900Y-104723100D02*
X84516700Y-104723100D01*
X78230800Y-97040400D02*
X78230800Y-99910800D01*
X83902800Y-104700000D02*
X83925900Y-104723100D01*
%TO.N,VBUS*%
X84262700Y-160449600D02*
X87880200Y-160449600D01*
X87880200Y-160449600D02*
X87880200Y-162160000D01*
X83080200Y-161632100D02*
X84262700Y-160449600D01*
X101346200Y-110456200D02*
X103296000Y-110456200D01*
X100762200Y-111040200D02*
X101346200Y-110456200D01*
X83080200Y-162160000D02*
X83080200Y-161632100D01*
X92904900Y-155424900D02*
X87880200Y-160449600D01*
%TO.N,Net-(C10-Pad2)*%
D23*
X106841619Y-78231619D02*
X107640000Y-79030000D01*
X105421619Y-78231619D02*
X106841619Y-78231619D01*
%TO.N,Net-(C11-Pad1)*%
X101660000Y-76620000D02*
X102488100Y-77448100D01*
X102488100Y-77448100D02*
X102488100Y-82408100D01*
X102488100Y-82408100D02*
X104300000Y-84220000D01*
%TO.N,Net-(U1-RFI1)*%
X73417100Y-76617100D02*
X63730000Y-66930000D01*
X89426900Y-76617100D02*
X73417100Y-76617100D01*
%TO.N,Net-(U1-RFI2)*%
X46380000Y-48370000D02*
X83442300Y-48370000D01*
X83442300Y-48370000D02*
X89480000Y-54407700D01*
%TO.N,Net-(U1-VSP_A)*%
X101660000Y-75482400D02*
X101660000Y-75660000D01*
X102813689Y-74328711D02*
X101660000Y-75482400D01*
X103160000Y-74328711D02*
X102813689Y-74328711D01*
%TO.N,Net-(U1-RFO1)*%
X92305700Y-75176000D02*
X96805600Y-70676100D01*
X96805600Y-70676100D02*
X101017800Y-70676100D01*
%TO.N,/IRQ*%
X97134800Y-95199900D02*
X93544300Y-95199900D01*
X93544300Y-95199900D02*
X86221600Y-102522600D01*
%TO.N,/MCU_CLK*%
X91406800Y-86069500D02*
X99320000Y-86069500D01*
X79746400Y-97730000D02*
X91406800Y-86069600D01*
X91406800Y-86069600D02*
X91406800Y-86069500D01*
X79276300Y-97730000D02*
X79746400Y-97730000D01*
%TO.N,/MISO*%
X96183400Y-87174700D02*
X81719600Y-101638500D01*
X99968200Y-87174700D02*
X96183400Y-87174700D01*
%TO.N,/MOSI*%
X100572000Y-88926300D02*
X95842700Y-88926300D01*
X95842700Y-88926300D02*
X82973800Y-101795200D01*
%TO.N,/SCLK*%
X80696100Y-95031300D02*
X95657100Y-80070300D01*
X80696100Y-95457300D02*
X80696100Y-95031300D01*
X80685665Y-100634335D02*
X78632500Y-98581170D01*
X78632500Y-98581170D02*
X78632500Y-97520900D01*
X78632500Y-97520900D02*
X80696100Y-95457300D01*
X95657100Y-80070300D02*
X100958100Y-80070300D01*
%TO.N,/{slash}SS*%
X97071600Y-85029800D02*
X101886400Y-80215000D01*
X81297800Y-95327700D02*
X91595700Y-85029800D01*
X91595700Y-85029800D02*
X97071600Y-85029800D01*
%TO.N,Net-(J2-CC1)*%
X86730200Y-162160000D02*
X86730200Y-161140100D01*
X86730200Y-161140100D02*
X86648000Y-161057900D01*
%TO.N,Net-(U2-GND)*%
X81119600Y-101889600D02*
X82660000Y-103430000D01*
X83784785Y-98724785D02*
X81119600Y-101389971D01*
X81119600Y-101389971D02*
X81119600Y-101889600D01*
X84280000Y-103430000D02*
X86319880Y-101390120D01*
X82660000Y-103430000D02*
X84280000Y-103430000D01*
%TO.N,/D+*%
X85730200Y-162785400D02*
X87089100Y-164144300D01*
X90126000Y-164144300D02*
X90601900Y-163668400D01*
X85730200Y-162160000D02*
X85730200Y-162785400D01*
X87089100Y-164144300D02*
X90126000Y-164144300D01*
X90601900Y-159984300D02*
X89914000Y-159296400D01*
X90601900Y-163520000D02*
X90601900Y-159984300D01*
%TO.N,Net-(BT1--)*%
X101780000Y-113500000D02*
X101780000Y-111481700D01*
X50610000Y-164670000D02*
X101780000Y-113500000D01*
%TD*%
%TA.AperFunction,Conductor*%
%TO.N,GND*%
G36*
X89481678Y-159729160D02*
G01*
X89526025Y-159757661D01*
X89545284Y-159776920D01*
X89545286Y-159776921D01*
X89545290Y-159776924D01*
X89636725Y-159829713D01*
X89682216Y-159855977D01*
X89834943Y-159896900D01*
X89896745Y-159896900D01*
X89963784Y-159916585D01*
X89984426Y-159933219D01*
X90165081Y-160113873D01*
X90198566Y-160175196D01*
X90201400Y-160201554D01*
X90201400Y-163451145D01*
X90192755Y-163480585D01*
X90186232Y-163510572D01*
X90182477Y-163515587D01*
X90181715Y-163518184D01*
X90165081Y-163538826D01*
X89996426Y-163707481D01*
X89935103Y-163740966D01*
X89908745Y-163743800D01*
X88955749Y-163743800D01*
X88888710Y-163724115D01*
X88842955Y-163671311D01*
X88833011Y-163602153D01*
X88848362Y-163557800D01*
X88906479Y-163457138D01*
X88906481Y-163457135D01*
X88945700Y-163310766D01*
X88945700Y-163159234D01*
X88906481Y-163012865D01*
X88830715Y-162881635D01*
X88723565Y-162774485D01*
X88657950Y-162736602D01*
X88592336Y-162698719D01*
X88584520Y-162696625D01*
X88572604Y-162693432D01*
X88512945Y-162657067D01*
X88482417Y-162594220D01*
X88480700Y-162573658D01*
X88480700Y-161680730D01*
X88477846Y-161650302D01*
X88437658Y-161535449D01*
X88430700Y-161494495D01*
X88430700Y-160728986D01*
X88450385Y-160661947D01*
X88467014Y-160641309D01*
X89350663Y-159757660D01*
X89411986Y-159724176D01*
X89481678Y-159729160D01*
G37*
%TD.AperFunction*%
%TA.AperFunction,Conductor*%
G36*
X96358834Y-138462204D02*
G01*
X96414767Y-138504076D01*
X96439184Y-138569540D01*
X96439500Y-138578386D01*
X96439500Y-157064645D01*
X96419815Y-157131684D01*
X96403181Y-157152326D01*
X91214081Y-162341426D01*
X91152758Y-162374911D01*
X91083066Y-162369927D01*
X91027133Y-162328055D01*
X91002716Y-162262591D01*
X91002400Y-162253745D01*
X91002400Y-160047029D01*
X91002401Y-160047016D01*
X91002401Y-159931576D01*
X91002401Y-159931574D01*
X90975107Y-159829713D01*
X90944627Y-159776920D01*
X90922380Y-159738387D01*
X90847813Y-159663820D01*
X90847812Y-159663819D01*
X90843482Y-159659489D01*
X90843471Y-159659479D01*
X90550819Y-159366826D01*
X90517334Y-159305503D01*
X90514500Y-159279145D01*
X90514500Y-159217345D01*
X90514500Y-159217343D01*
X90473577Y-159064616D01*
X90437845Y-159002725D01*
X90394524Y-158927690D01*
X90394518Y-158927682D01*
X90375261Y-158908425D01*
X90341776Y-158847102D01*
X90346760Y-158777410D01*
X90375261Y-158733063D01*
X91299532Y-157808792D01*
X93345410Y-155762915D01*
X93417884Y-155637385D01*
X93455400Y-155497374D01*
X93455400Y-155352426D01*
X93455400Y-141314486D01*
X93475085Y-141247447D01*
X93491719Y-141226805D01*
X96227819Y-138490705D01*
X96289142Y-138457220D01*
X96358834Y-138462204D01*
G37*
%TD.AperFunction*%
%TA.AperFunction,Conductor*%
G36*
X126962539Y-46620185D02*
G01*
X127008294Y-46672989D01*
X127019500Y-46724500D01*
X127019500Y-164215969D01*
X126999815Y-164283008D01*
X126947011Y-164328763D01*
X126877853Y-164338707D01*
X126814297Y-164309682D01*
X126797125Y-164291456D01*
X126760635Y-164243902D01*
X126760626Y-164243892D01*
X126557665Y-164040931D01*
X126557658Y-164040925D01*
X126329941Y-163866192D01*
X126329939Y-163866191D01*
X126329933Y-163866186D01*
X126233482Y-163810500D01*
X126081348Y-163722665D01*
X126081334Y-163722658D01*
X125816159Y-163612820D01*
X125807426Y-163610480D01*
X125538889Y-163538525D01*
X125538888Y-163538524D01*
X125538885Y-163538524D01*
X125254310Y-163501059D01*
X125254307Y-163501058D01*
X125254301Y-163501058D01*
X124967257Y-163501058D01*
X124967251Y-163501058D01*
X124967247Y-163501059D01*
X124682672Y-163538524D01*
X124405398Y-163612820D01*
X124140223Y-163722658D01*
X124140209Y-163722665D01*
X123891631Y-163866182D01*
X123891616Y-163866192D01*
X123663899Y-164040925D01*
X123663892Y-164040931D01*
X123460931Y-164243892D01*
X123460925Y-164243899D01*
X123286192Y-164471616D01*
X123286182Y-164471631D01*
X123142665Y-164720209D01*
X123142658Y-164720223D01*
X123032820Y-164985398D01*
X122958524Y-165262672D01*
X122921059Y-165547247D01*
X122921058Y-165547263D01*
X122921058Y-165834294D01*
X122921059Y-165834310D01*
X122938696Y-165968280D01*
X122958525Y-166118889D01*
X122965704Y-166145683D01*
X123032820Y-166396159D01*
X123142658Y-166661334D01*
X123142664Y-166661346D01*
X123286186Y-166909933D01*
X123286191Y-166909939D01*
X123286192Y-166909941D01*
X123460925Y-167137658D01*
X123460931Y-167137665D01*
X123663892Y-167340626D01*
X123663899Y-167340632D01*
X123711456Y-167377124D01*
X123752659Y-167433552D01*
X123756814Y-167503298D01*
X123722602Y-167564218D01*
X123660885Y-167596971D01*
X123635970Y-167599500D01*
X47404030Y-167599500D01*
X47336991Y-167579815D01*
X47291236Y-167527011D01*
X47281292Y-167457853D01*
X47310317Y-167394297D01*
X47328544Y-167377124D01*
X47351000Y-167359892D01*
X47376102Y-167340631D01*
X47579073Y-167137660D01*
X47753814Y-166909933D01*
X47897336Y-166661346D01*
X48007182Y-166396152D01*
X48081475Y-166118889D01*
X48118942Y-165834301D01*
X48118942Y-165547257D01*
X48081475Y-165262669D01*
X48007182Y-164985406D01*
X47897336Y-164720212D01*
X47816066Y-164579448D01*
X49459500Y-164579448D01*
X49459500Y-164760551D01*
X49487829Y-164939410D01*
X49543787Y-165111636D01*
X49543788Y-165111639D01*
X49626006Y-165272997D01*
X49732441Y-165419494D01*
X49732445Y-165419499D01*
X49860500Y-165547554D01*
X49860505Y-165547558D01*
X49929263Y-165597513D01*
X50007006Y-165653996D01*
X50112484Y-165707740D01*
X50168360Y-165736211D01*
X50168363Y-165736212D01*
X50254476Y-165764191D01*
X50340591Y-165792171D01*
X50423429Y-165805291D01*
X50519449Y-165820500D01*
X50519454Y-165820500D01*
X50700551Y-165820500D01*
X50787259Y-165806765D01*
X50879409Y-165792171D01*
X51051639Y-165736211D01*
X51212994Y-165653996D01*
X51359501Y-165547553D01*
X51487553Y-165419501D01*
X51593996Y-165272994D01*
X51676211Y-165111639D01*
X51732171Y-164939409D01*
X51746765Y-164847259D01*
X51760500Y-164760551D01*
X51760500Y-164579448D01*
X51739651Y-164447819D01*
X51732171Y-164400591D01*
X51685424Y-164256716D01*
X51683429Y-164186875D01*
X51715672Y-164130719D01*
X51819493Y-164026898D01*
X53159500Y-164026898D01*
X53159500Y-165313102D01*
X53165126Y-165359954D01*
X53170122Y-165401561D01*
X53170122Y-165401563D01*
X53170123Y-165401564D01*
X53187722Y-165446192D01*
X53225639Y-165542343D01*
X53317077Y-165662922D01*
X53437656Y-165754360D01*
X53437657Y-165754360D01*
X53437658Y-165754361D01*
X53578436Y-165809877D01*
X53666898Y-165820500D01*
X53666903Y-165820500D01*
X54953097Y-165820500D01*
X54953102Y-165820500D01*
X55041564Y-165809877D01*
X55182342Y-165754361D01*
X55302922Y-165662922D01*
X55394361Y-165542342D01*
X55449877Y-165401564D01*
X55460500Y-165313102D01*
X55460500Y-165194500D01*
X55480185Y-165127461D01*
X55532989Y-165081706D01*
X55584500Y-165070500D01*
X70002725Y-165070500D01*
X70002727Y-165070500D01*
X70104588Y-165043207D01*
X70195913Y-164990480D01*
X90909574Y-144276819D01*
X90970897Y-144243334D01*
X90997255Y-144240500D01*
X91059055Y-144240500D01*
X91059057Y-144240500D01*
X91211784Y-144199577D01*
X91348716Y-144120520D01*
X91460520Y-144008716D01*
X91539577Y-143871784D01*
X91580500Y-143719057D01*
X91580500Y-143560943D01*
X91539577Y-143408216D01*
X91539573Y-143408209D01*
X91460524Y-143271290D01*
X91460518Y-143271282D01*
X91348717Y-143159481D01*
X91348709Y-143159475D01*
X91211790Y-143080426D01*
X91211786Y-143080424D01*
X91211784Y-143080423D01*
X91059057Y-143039500D01*
X90917725Y-143039500D01*
X90850686Y-143019815D01*
X90804931Y-142967011D01*
X90794987Y-142897853D01*
X90824012Y-142834297D01*
X90830044Y-142827819D01*
X92142719Y-141515144D01*
X92204042Y-141481659D01*
X92273734Y-141486643D01*
X92329667Y-141528515D01*
X92354084Y-141593979D01*
X92354400Y-141602825D01*
X92354400Y-155145513D01*
X92334715Y-155212552D01*
X92318081Y-155233194D01*
X87688494Y-159862781D01*
X87627171Y-159896266D01*
X87600813Y-159899100D01*
X84190225Y-159899100D01*
X84069035Y-159931573D01*
X84069034Y-159931572D01*
X84050217Y-159936615D01*
X84050212Y-159936617D01*
X83924689Y-160009087D01*
X83924684Y-160009091D01*
X82639691Y-161294083D01*
X82639687Y-161294088D01*
X82577224Y-161402278D01*
X82577221Y-161402284D01*
X82571122Y-161412850D01*
X82567216Y-161419615D01*
X82551808Y-161477114D01*
X82550495Y-161480981D01*
X82546101Y-161487226D01*
X82532859Y-161514728D01*
X82527408Y-161522114D01*
X82482553Y-161650303D01*
X82479700Y-161680730D01*
X82479700Y-162573657D01*
X82460015Y-162640696D01*
X82407211Y-162686451D01*
X82387799Y-162693430D01*
X82368067Y-162698717D01*
X82368065Y-162698718D01*
X82236835Y-162774485D01*
X82236832Y-162774487D01*
X82129687Y-162881632D01*
X82129685Y-162881635D01*
X82053919Y-163012863D01*
X82014700Y-163159234D01*
X82014700Y-163310765D01*
X82053919Y-163457136D01*
X82084771Y-163510572D01*
X82129685Y-163588365D01*
X82236835Y-163695515D01*
X82368065Y-163771281D01*
X82514434Y-163810500D01*
X82514436Y-163810500D01*
X82665964Y-163810500D01*
X82665966Y-163810500D01*
X82812335Y-163771281D01*
X82943565Y-163695515D01*
X83050715Y-163588365D01*
X83126481Y-163457135D01*
X83165700Y-163310766D01*
X83165700Y-163159390D01*
X83175095Y-163127392D01*
X83183626Y-163095170D01*
X83184899Y-163094005D01*
X83185385Y-163092351D01*
X83210569Y-163070528D01*
X83235185Y-163048016D01*
X83237123Y-163047519D01*
X83238189Y-163046596D01*
X83268770Y-163037169D01*
X83278516Y-163035500D01*
X83284466Y-163035500D01*
X83314899Y-163032646D01*
X83333794Y-163026033D01*
X83344019Y-163024283D01*
X83368823Y-163027173D01*
X83393768Y-163025899D01*
X83403210Y-163031180D01*
X83413419Y-163032370D01*
X83430721Y-163046568D01*
X83452630Y-163058823D01*
X84004287Y-163610480D01*
X84095612Y-163663207D01*
X84095615Y-163663208D01*
X84098362Y-163664346D01*
X84138590Y-163691226D01*
X84217884Y-163770520D01*
X84217886Y-163770521D01*
X84217890Y-163770524D01*
X84343499Y-163843043D01*
X84354816Y-163849577D01*
X84507543Y-163890500D01*
X84507545Y-163890500D01*
X84665655Y-163890500D01*
X84665657Y-163890500D01*
X84673606Y-163888370D01*
X84743454Y-163890031D01*
X84801317Y-163929192D01*
X84828823Y-163993420D01*
X84829700Y-164008144D01*
X84829700Y-164077473D01*
X84829700Y-164182927D01*
X84841874Y-164228361D01*
X84856993Y-164284789D01*
X84882382Y-164328763D01*
X84909720Y-164376113D01*
X85839518Y-165305910D01*
X85839520Y-165305913D01*
X85914087Y-165380480D01*
X85950606Y-165401564D01*
X86005412Y-165433207D01*
X86107273Y-165460500D01*
X86107275Y-165460500D01*
X91222725Y-165460500D01*
X91222727Y-165460500D01*
X91324588Y-165433207D01*
X91415913Y-165380480D01*
X97600480Y-159195913D01*
X97653207Y-159104588D01*
X97680500Y-159002727D01*
X97680500Y-158897273D01*
X97680500Y-133527273D01*
X97653207Y-133425413D01*
X97653207Y-133425412D01*
X97600480Y-133334087D01*
X94925913Y-130659520D01*
X94880250Y-130633156D01*
X94834589Y-130606793D01*
X94783657Y-130593146D01*
X94732727Y-130579500D01*
X94732726Y-130579500D01*
X86780098Y-130579500D01*
X86713059Y-130559815D01*
X86692417Y-130543181D01*
X86648717Y-130499481D01*
X86648709Y-130499475D01*
X86511790Y-130420426D01*
X86511786Y-130420424D01*
X86511784Y-130420423D01*
X86359057Y-130379500D01*
X86200943Y-130379500D01*
X86048216Y-130420423D01*
X86048209Y-130420426D01*
X85911290Y-130499475D01*
X85911282Y-130499481D01*
X85799481Y-130611282D01*
X85799475Y-130611290D01*
X85720426Y-130748209D01*
X85720423Y-130748216D01*
X85679500Y-130900943D01*
X85679500Y-131059056D01*
X85720423Y-131211783D01*
X85720426Y-131211790D01*
X85799475Y-131348709D01*
X85799479Y-131348714D01*
X85799480Y-131348716D01*
X85911284Y-131460520D01*
X85911286Y-131460521D01*
X85911290Y-131460524D01*
X86048209Y-131539573D01*
X86048216Y-131539577D01*
X86200943Y-131580500D01*
X86200945Y-131580500D01*
X86359055Y-131580500D01*
X86359057Y-131580500D01*
X86511784Y-131539577D01*
X86648716Y-131460520D01*
X86692417Y-131416819D01*
X86753740Y-131383334D01*
X86780098Y-131380500D01*
X94462745Y-131380500D01*
X94529784Y-131400185D01*
X94550426Y-131416819D01*
X96843181Y-133709574D01*
X96876666Y-133770897D01*
X96879500Y-133797255D01*
X96879500Y-136648494D01*
X96859815Y-136715533D01*
X96807011Y-136761288D01*
X96737853Y-136771232D01*
X96693500Y-136755881D01*
X96643120Y-136726794D01*
X96643117Y-136726793D01*
X96541256Y-136699500D01*
X96541255Y-136699500D01*
X96051810Y-136699500D01*
X96051794Y-136699499D01*
X96044198Y-136699499D01*
X95938744Y-136699499D01*
X95878906Y-136715533D01*
X95836883Y-136726793D01*
X95745555Y-136779522D01*
X88781897Y-143743181D01*
X88720574Y-143776666D01*
X88694216Y-143779500D01*
X88660943Y-143779500D01*
X88508216Y-143820423D01*
X88508209Y-143820426D01*
X88371290Y-143899475D01*
X88371282Y-143899481D01*
X88259481Y-144011282D01*
X88259475Y-144011290D01*
X88180426Y-144148209D01*
X88180423Y-144148216D01*
X88139500Y-144300943D01*
X88139500Y-144459056D01*
X88180423Y-144611783D01*
X88180426Y-144611790D01*
X88259475Y-144748709D01*
X88259479Y-144748714D01*
X88259480Y-144748716D01*
X88371284Y-144860520D01*
X88371286Y-144860521D01*
X88371290Y-144860524D01*
X88508209Y-144939573D01*
X88508216Y-144939577D01*
X88660943Y-144980500D01*
X88660945Y-144980500D01*
X88773745Y-144980500D01*
X88840784Y-145000185D01*
X88886539Y-145052989D01*
X88896483Y-145122147D01*
X88867458Y-145185703D01*
X88861426Y-145192181D01*
X69820426Y-164233181D01*
X69759103Y-164266666D01*
X69732745Y-164269500D01*
X55584500Y-164269500D01*
X55517461Y-164249815D01*
X55471706Y-164197011D01*
X55460500Y-164145500D01*
X55460500Y-164026903D01*
X55460500Y-164026898D01*
X55449877Y-163938436D01*
X55394361Y-163797658D01*
X55394360Y-163797657D01*
X55394360Y-163797656D01*
X55302922Y-163677077D01*
X55182343Y-163585639D01*
X55041561Y-163530122D01*
X54995926Y-163524642D01*
X54953102Y-163519500D01*
X53666898Y-163519500D01*
X53627853Y-163524188D01*
X53578438Y-163530122D01*
X53437656Y-163585639D01*
X53317077Y-163677077D01*
X53225639Y-163797656D01*
X53170122Y-163938438D01*
X53167016Y-163964307D01*
X53159500Y-164026898D01*
X51819493Y-164026898D01*
X102100480Y-113745913D01*
X102153207Y-113654588D01*
X102180500Y-113552727D01*
X102180500Y-113447273D01*
X102180500Y-111981798D01*
X102200185Y-111914759D01*
X102216819Y-111894117D01*
X102260520Y-111850416D01*
X102339577Y-111713484D01*
X102380500Y-111560757D01*
X102380500Y-111402643D01*
X102339577Y-111249916D01*
X102306542Y-111192698D01*
X102290071Y-111124799D01*
X102312924Y-111058772D01*
X102367846Y-111015582D01*
X102413931Y-111006700D01*
X103017637Y-111006700D01*
X103056179Y-111014365D01*
X103056365Y-111013673D01*
X103064214Y-111015776D01*
X103064216Y-111015777D01*
X103216943Y-111056700D01*
X103216945Y-111056700D01*
X103375055Y-111056700D01*
X103375057Y-111056700D01*
X103527784Y-111015777D01*
X103664716Y-110936720D01*
X103776520Y-110824916D01*
X103855577Y-110687984D01*
X103896500Y-110535257D01*
X103896500Y-110377143D01*
X103855577Y-110224416D01*
X103855573Y-110224409D01*
X103776524Y-110087490D01*
X103776518Y-110087482D01*
X103664717Y-109975681D01*
X103664709Y-109975675D01*
X103527790Y-109896626D01*
X103527786Y-109896624D01*
X103527784Y-109896623D01*
X103375057Y-109855700D01*
X103216943Y-109855700D01*
X103064216Y-109896623D01*
X103064214Y-109896623D01*
X103056365Y-109898727D01*
X103056179Y-109898034D01*
X103017637Y-109905700D01*
X101273725Y-109905700D01*
X101168717Y-109933837D01*
X101133714Y-109943216D01*
X101008186Y-110015689D01*
X101008183Y-110015691D01*
X100569767Y-110454106D01*
X100537094Y-110475940D01*
X100537453Y-110476561D01*
X100530418Y-110480622D01*
X100530416Y-110480623D01*
X100444228Y-110530382D01*
X100393485Y-110559679D01*
X100393482Y-110559681D01*
X100281681Y-110671482D01*
X100281675Y-110671490D01*
X100202626Y-110808409D01*
X100202623Y-110808416D01*
X100161700Y-110961143D01*
X100161700Y-111119256D01*
X100202623Y-111271983D01*
X100202626Y-111271990D01*
X100281675Y-111408909D01*
X100281679Y-111408914D01*
X100281680Y-111408916D01*
X100393484Y-111520720D01*
X100393486Y-111520721D01*
X100393490Y-111520724D01*
X100530409Y-111599773D01*
X100530416Y-111599777D01*
X100683143Y-111640700D01*
X100683145Y-111640700D01*
X100841255Y-111640700D01*
X100841257Y-111640700D01*
X100993984Y-111599777D01*
X101023749Y-111582591D01*
X101091649Y-111566118D01*
X101157676Y-111588970D01*
X101200867Y-111643890D01*
X101205525Y-111657883D01*
X101220424Y-111713486D01*
X101220426Y-111713490D01*
X101299475Y-111850409D01*
X101299481Y-111850417D01*
X101343181Y-111894117D01*
X101376666Y-111955440D01*
X101379500Y-111981798D01*
X101379500Y-113282744D01*
X101359815Y-113349783D01*
X101343181Y-113370425D01*
X51149280Y-163564325D01*
X51087957Y-163597810D01*
X51023281Y-163594575D01*
X50879410Y-163547829D01*
X50700551Y-163519500D01*
X50700546Y-163519500D01*
X50519454Y-163519500D01*
X50519449Y-163519500D01*
X50340589Y-163547829D01*
X50168363Y-163603787D01*
X50168360Y-163603788D01*
X50007002Y-163686006D01*
X49860505Y-163792441D01*
X49860500Y-163792445D01*
X49732445Y-163920500D01*
X49732441Y-163920505D01*
X49626006Y-164067002D01*
X49543788Y-164228360D01*
X49543787Y-164228363D01*
X49487829Y-164400589D01*
X49459500Y-164579448D01*
X47816066Y-164579448D01*
X47753814Y-164471625D01*
X47680524Y-164376112D01*
X47579074Y-164243899D01*
X47579068Y-164243892D01*
X47376107Y-164040931D01*
X47376100Y-164040925D01*
X47148383Y-163866192D01*
X47148381Y-163866191D01*
X47148375Y-163866186D01*
X47051924Y-163810500D01*
X46899790Y-163722665D01*
X46899776Y-163722658D01*
X46634601Y-163612820D01*
X46625868Y-163610480D01*
X46357331Y-163538525D01*
X46357330Y-163538524D01*
X46357327Y-163538524D01*
X46072752Y-163501059D01*
X46072749Y-163501058D01*
X46072743Y-163501058D01*
X45785699Y-163501058D01*
X45785693Y-163501058D01*
X45785689Y-163501059D01*
X45501114Y-163538524D01*
X45223840Y-163612820D01*
X44958665Y-163722658D01*
X44958651Y-163722665D01*
X44710073Y-163866182D01*
X44710058Y-163866192D01*
X44482341Y-164040925D01*
X44482334Y-164040931D01*
X44279373Y-164243892D01*
X44279364Y-164243902D01*
X44242875Y-164291456D01*
X44186447Y-164332659D01*
X44116701Y-164336813D01*
X44055781Y-164302600D01*
X44023029Y-164240882D01*
X44020500Y-164215969D01*
X44020500Y-96967925D01*
X77680300Y-96967925D01*
X77680300Y-99838326D01*
X77680300Y-99983274D01*
X77717816Y-100123285D01*
X77790290Y-100248815D01*
X82681986Y-105140510D01*
X82739300Y-105173600D01*
X82807515Y-105212984D01*
X82947525Y-105250500D01*
X82947526Y-105250500D01*
X83092474Y-105250500D01*
X83750890Y-105250500D01*
X83782983Y-105254725D01*
X83793615Y-105257573D01*
X83853425Y-105273600D01*
X84238337Y-105273600D01*
X84276879Y-105281265D01*
X84277065Y-105280573D01*
X84284914Y-105282676D01*
X84284916Y-105282677D01*
X84437643Y-105323600D01*
X84437645Y-105323600D01*
X84595755Y-105323600D01*
X84595757Y-105323600D01*
X84748484Y-105282677D01*
X84885416Y-105203620D01*
X84887617Y-105201419D01*
X84889929Y-105200156D01*
X84891861Y-105198674D01*
X84892092Y-105198975D01*
X84948940Y-105167934D01*
X84975298Y-105165100D01*
X88213972Y-105165100D01*
X88213974Y-105165100D01*
X88213975Y-105165100D01*
X88353985Y-105127584D01*
X88479515Y-105055110D01*
X92960329Y-100574293D01*
X92993003Y-100552464D01*
X92992644Y-100551842D01*
X93133924Y-100470274D01*
X93136616Y-100468720D01*
X93248420Y-100356916D01*
X93327477Y-100219984D01*
X93368400Y-100067257D01*
X93368400Y-99909143D01*
X93327477Y-99756416D01*
X93327473Y-99756409D01*
X93248424Y-99619490D01*
X93248418Y-99619482D01*
X93136617Y-99507681D01*
X93136609Y-99507675D01*
X92999690Y-99428626D01*
X92999686Y-99428624D01*
X92999684Y-99428623D01*
X92846957Y-99387700D01*
X92688843Y-99387700D01*
X92536116Y-99428623D01*
X92536109Y-99428626D01*
X92399190Y-99507675D01*
X92399182Y-99507681D01*
X92287381Y-99619482D01*
X92287377Y-99619487D01*
X92204259Y-99763454D01*
X92203637Y-99763095D01*
X92181805Y-99795769D01*
X87949794Y-104027781D01*
X87888471Y-104061266D01*
X87862113Y-104064100D01*
X84552725Y-104064100D01*
X84468719Y-104086609D01*
X84412713Y-104101616D01*
X84412710Y-104101618D01*
X84337438Y-104145075D01*
X84310430Y-104156648D01*
X84308963Y-104157079D01*
X84284916Y-104163523D01*
X84282693Y-104164805D01*
X84273327Y-104167561D01*
X84263650Y-104167565D01*
X84238337Y-104172600D01*
X84077810Y-104172600D01*
X84045717Y-104168375D01*
X83989221Y-104153237D01*
X83975275Y-104149500D01*
X83975274Y-104149500D01*
X83299386Y-104149500D01*
X83269945Y-104140855D01*
X83239959Y-104134332D01*
X83234943Y-104130577D01*
X83232347Y-104129815D01*
X83211705Y-104113181D01*
X83140705Y-104042181D01*
X83107220Y-103980858D01*
X83112204Y-103911166D01*
X83154076Y-103855233D01*
X83219540Y-103830816D01*
X83228386Y-103830500D01*
X84332725Y-103830500D01*
X84332727Y-103830500D01*
X84434588Y-103803207D01*
X84525913Y-103750480D01*
X85496507Y-102779884D01*
X85557828Y-102746401D01*
X85627519Y-102751385D01*
X85683453Y-102793256D01*
X85691573Y-102805568D01*
X85741075Y-102891309D01*
X85741079Y-102891314D01*
X85741080Y-102891316D01*
X85852884Y-103003120D01*
X85852886Y-103003121D01*
X85852890Y-103003124D01*
X85989809Y-103082173D01*
X85989816Y-103082177D01*
X86142543Y-103123100D01*
X86142545Y-103123100D01*
X86300655Y-103123100D01*
X86300657Y-103123100D01*
X86453384Y-103082177D01*
X86590316Y-103003120D01*
X86702120Y-102891316D01*
X86781177Y-102754384D01*
X86822100Y-102601657D01*
X86822100Y-102539854D01*
X86841785Y-102472815D01*
X86858419Y-102452173D01*
X93673873Y-95636719D01*
X93735196Y-95603234D01*
X93761554Y-95600400D01*
X96634702Y-95600400D01*
X96701741Y-95620085D01*
X96722383Y-95636719D01*
X96766084Y-95680420D01*
X96766086Y-95680421D01*
X96766090Y-95680424D01*
X96903009Y-95759473D01*
X96903016Y-95759477D01*
X97055743Y-95800400D01*
X97055745Y-95800400D01*
X97213855Y-95800400D01*
X97213857Y-95800400D01*
X97366584Y-95759477D01*
X97503516Y-95680420D01*
X97615320Y-95568616D01*
X97694377Y-95431684D01*
X97735300Y-95278957D01*
X97735300Y-95120843D01*
X97694377Y-94968116D01*
X97643169Y-94879420D01*
X97615324Y-94831190D01*
X97615318Y-94831182D01*
X97503517Y-94719381D01*
X97503509Y-94719375D01*
X97366590Y-94640326D01*
X97366586Y-94640324D01*
X97366584Y-94640323D01*
X97213857Y-94599400D01*
X97055743Y-94599400D01*
X96903016Y-94640323D01*
X96903009Y-94640326D01*
X96766090Y-94719375D01*
X96766082Y-94719381D01*
X96722383Y-94763081D01*
X96661060Y-94796566D01*
X96634702Y-94799400D01*
X93604639Y-94799400D01*
X93604623Y-94799399D01*
X93597027Y-94799399D01*
X93491573Y-94799399D01*
X93423666Y-94817595D01*
X93389712Y-94826693D01*
X93327334Y-94862707D01*
X93303078Y-94876712D01*
X93298384Y-94879422D01*
X93223818Y-94953989D01*
X87044973Y-101132832D01*
X86983650Y-101166317D01*
X86913958Y-101161333D01*
X86858025Y-101119461D01*
X86849912Y-101107162D01*
X86800400Y-101021404D01*
X86688596Y-100909600D01*
X86688594Y-100909599D01*
X86688589Y-100909595D01*
X86551670Y-100830546D01*
X86551666Y-100830544D01*
X86551664Y-100830543D01*
X86398937Y-100789620D01*
X86240823Y-100789620D01*
X86088096Y-100830543D01*
X86088089Y-100830546D01*
X85951170Y-100909595D01*
X85951162Y-100909601D01*
X85839361Y-101021402D01*
X85839355Y-101021410D01*
X85760306Y-101158329D01*
X85760303Y-101158336D01*
X85719380Y-101311063D01*
X85719380Y-101372865D01*
X85699695Y-101439904D01*
X85683061Y-101460546D01*
X84150426Y-102993181D01*
X84089103Y-103026666D01*
X84062745Y-103029500D01*
X82877254Y-103029500D01*
X82810215Y-103009815D01*
X82789573Y-102993181D01*
X82089545Y-102293152D01*
X82056060Y-102231829D01*
X82061044Y-102162137D01*
X82089541Y-102117794D01*
X82200120Y-102007216D01*
X82200124Y-102007207D01*
X82203097Y-102003335D01*
X82259522Y-101962130D01*
X82329268Y-101957972D01*
X82390190Y-101992181D01*
X82408962Y-102020636D01*
X82410159Y-102019946D01*
X82493275Y-102163909D01*
X82493279Y-102163914D01*
X82493280Y-102163916D01*
X82605084Y-102275720D01*
X82605086Y-102275721D01*
X82605090Y-102275724D01*
X82635277Y-102293152D01*
X82742016Y-102354777D01*
X82894743Y-102395700D01*
X82894745Y-102395700D01*
X83052855Y-102395700D01*
X83052857Y-102395700D01*
X83205584Y-102354777D01*
X83342516Y-102275720D01*
X83454320Y-102163916D01*
X83533377Y-102026984D01*
X83574300Y-101874257D01*
X83574300Y-101812455D01*
X83593985Y-101745416D01*
X83610619Y-101724774D01*
X95972274Y-89363119D01*
X96033597Y-89329634D01*
X96059955Y-89326800D01*
X100071902Y-89326800D01*
X100138941Y-89346485D01*
X100159583Y-89363119D01*
X100203284Y-89406820D01*
X100203286Y-89406821D01*
X100203290Y-89406824D01*
X100340209Y-89485873D01*
X100340216Y-89485877D01*
X100492943Y-89526800D01*
X100492945Y-89526800D01*
X100651055Y-89526800D01*
X100651057Y-89526800D01*
X100803784Y-89485877D01*
X100940716Y-89406820D01*
X101052520Y-89295016D01*
X101131577Y-89158084D01*
X101172500Y-89005357D01*
X101172500Y-88847243D01*
X101131577Y-88694516D01*
X101080369Y-88605820D01*
X101052524Y-88557590D01*
X101052518Y-88557582D01*
X100940717Y-88445781D01*
X100940709Y-88445775D01*
X100803790Y-88366726D01*
X100803786Y-88366724D01*
X100803784Y-88366723D01*
X100651057Y-88325800D01*
X100492943Y-88325800D01*
X100340216Y-88366723D01*
X100340209Y-88366726D01*
X100203290Y-88445775D01*
X100203282Y-88445781D01*
X100159583Y-88489481D01*
X100098260Y-88522966D01*
X100071902Y-88525800D01*
X95789971Y-88525800D01*
X95702478Y-88549243D01*
X95632628Y-88547580D01*
X95574766Y-88508416D01*
X95547263Y-88444188D01*
X95558850Y-88375285D01*
X95582702Y-88341790D01*
X96312974Y-87611519D01*
X96374297Y-87578034D01*
X96400655Y-87575200D01*
X99468102Y-87575200D01*
X99535141Y-87594885D01*
X99555783Y-87611519D01*
X99599484Y-87655220D01*
X99599486Y-87655221D01*
X99599490Y-87655224D01*
X99736409Y-87734273D01*
X99736416Y-87734277D01*
X99889143Y-87775200D01*
X99889145Y-87775200D01*
X100047255Y-87775200D01*
X100047257Y-87775200D01*
X100199984Y-87734277D01*
X100336916Y-87655220D01*
X100448720Y-87543416D01*
X100527777Y-87406484D01*
X100568700Y-87253757D01*
X100568700Y-87095643D01*
X100527777Y-86942916D01*
X100476569Y-86854220D01*
X100448724Y-86805990D01*
X100448718Y-86805982D01*
X100336917Y-86694181D01*
X100336909Y-86694175D01*
X100199990Y-86615126D01*
X100199986Y-86615124D01*
X100199984Y-86615123D01*
X100047257Y-86574200D01*
X99936784Y-86574200D01*
X99869745Y-86554515D01*
X99823990Y-86501711D01*
X99814046Y-86432553D01*
X99829396Y-86388201D01*
X99833617Y-86380889D01*
X99879577Y-86301284D01*
X99920500Y-86148557D01*
X99920500Y-85990443D01*
X99879577Y-85837716D01*
X99879573Y-85837709D01*
X99800524Y-85700790D01*
X99800518Y-85700782D01*
X99688717Y-85588981D01*
X99688709Y-85588975D01*
X99551790Y-85509926D01*
X99551786Y-85509924D01*
X99551784Y-85509923D01*
X99399057Y-85469000D01*
X99240943Y-85469000D01*
X99088216Y-85509923D01*
X99088209Y-85509926D01*
X98951290Y-85588975D01*
X98951282Y-85588981D01*
X98907583Y-85632681D01*
X98846260Y-85666166D01*
X98819902Y-85669000D01*
X97175359Y-85669000D01*
X97108320Y-85649315D01*
X97062565Y-85596511D01*
X97052621Y-85527353D01*
X97081646Y-85463797D01*
X97140424Y-85426023D01*
X97143233Y-85425234D01*
X97226188Y-85403007D01*
X97317513Y-85350280D01*
X101815974Y-80851819D01*
X101842901Y-80837115D01*
X101868720Y-80820523D01*
X101874920Y-80819631D01*
X101877297Y-80818334D01*
X101903655Y-80815500D01*
X101963600Y-80815500D01*
X102030639Y-80835185D01*
X102076394Y-80887989D01*
X102087600Y-80939500D01*
X102087600Y-82460826D01*
X102114893Y-82562689D01*
X102141256Y-82608350D01*
X102167620Y-82654013D01*
X102167621Y-82654014D01*
X102167622Y-82654015D01*
X103663181Y-84149573D01*
X103696666Y-84210896D01*
X103699500Y-84237254D01*
X103699500Y-84299057D01*
X103733005Y-84424097D01*
X103740423Y-84451783D01*
X103740426Y-84451790D01*
X103819475Y-84588709D01*
X103819479Y-84588714D01*
X103819480Y-84588716D01*
X103931284Y-84700520D01*
X103931286Y-84700521D01*
X103931290Y-84700524D01*
X104068209Y-84779573D01*
X104068216Y-84779577D01*
X104220943Y-84820500D01*
X104220945Y-84820500D01*
X104379055Y-84820500D01*
X104379057Y-84820500D01*
X104531784Y-84779577D01*
X104668716Y-84700520D01*
X104780520Y-84588716D01*
X104859577Y-84451784D01*
X104900500Y-84299057D01*
X104900500Y-84140943D01*
X104859577Y-83988216D01*
X104859573Y-83988209D01*
X104780524Y-83851290D01*
X104780518Y-83851282D01*
X104668717Y-83739481D01*
X104668709Y-83739475D01*
X104531790Y-83660426D01*
X104531786Y-83660424D01*
X104531784Y-83660423D01*
X104379057Y-83619500D01*
X104379056Y-83619500D01*
X104317254Y-83619500D01*
X104250215Y-83599815D01*
X104229573Y-83583181D01*
X102924919Y-82278526D01*
X102891434Y-82217203D01*
X102888600Y-82190845D01*
X102888600Y-78152562D01*
X104821119Y-78152562D01*
X104821119Y-78310675D01*
X104862042Y-78463402D01*
X104862045Y-78463409D01*
X104941094Y-78600328D01*
X104941098Y-78600333D01*
X104941099Y-78600335D01*
X105052903Y-78712139D01*
X105052905Y-78712140D01*
X105052909Y-78712143D01*
X105189828Y-78791192D01*
X105189835Y-78791196D01*
X105342562Y-78832119D01*
X105342564Y-78832119D01*
X105500674Y-78832119D01*
X105500676Y-78832119D01*
X105653403Y-78791196D01*
X105790335Y-78712139D01*
X105834036Y-78668438D01*
X105895359Y-78634953D01*
X105921717Y-78632119D01*
X106624364Y-78632119D01*
X106691403Y-78651804D01*
X106712045Y-78668438D01*
X107003181Y-78959574D01*
X107036666Y-79020897D01*
X107039500Y-79047255D01*
X107039500Y-79109056D01*
X107080423Y-79261783D01*
X107080426Y-79261790D01*
X107159475Y-79398709D01*
X107159479Y-79398714D01*
X107159480Y-79398716D01*
X107271284Y-79510520D01*
X107271286Y-79510521D01*
X107271290Y-79510524D01*
X107352724Y-79557539D01*
X107408216Y-79589577D01*
X107560943Y-79630500D01*
X107560945Y-79630500D01*
X107719055Y-79630500D01*
X107719057Y-79630500D01*
X107871784Y-79589577D01*
X108008716Y-79510520D01*
X108120520Y-79398716D01*
X108199577Y-79261784D01*
X108240500Y-79109057D01*
X108240500Y-78950943D01*
X108199577Y-78798216D01*
X108195524Y-78791196D01*
X108120524Y-78661290D01*
X108120518Y-78661282D01*
X108008717Y-78549481D01*
X108008709Y-78549475D01*
X107871790Y-78470426D01*
X107871786Y-78470424D01*
X107871784Y-78470423D01*
X107719057Y-78429500D01*
X107719056Y-78429500D01*
X107657255Y-78429500D01*
X107590216Y-78409815D01*
X107569574Y-78393181D01*
X107087534Y-77911141D01*
X107087532Y-77911139D01*
X107041869Y-77884775D01*
X106996208Y-77858412D01*
X106945276Y-77844765D01*
X106894346Y-77831119D01*
X106894345Y-77831119D01*
X105921717Y-77831119D01*
X105854678Y-77811434D01*
X105834036Y-77794800D01*
X105790336Y-77751100D01*
X105790328Y-77751094D01*
X105653409Y-77672045D01*
X105653405Y-77672043D01*
X105653403Y-77672042D01*
X105500676Y-77631119D01*
X105342562Y-77631119D01*
X105189835Y-77672042D01*
X105189828Y-77672045D01*
X105052909Y-77751094D01*
X105052901Y-77751100D01*
X104941100Y-77862901D01*
X104941094Y-77862909D01*
X104862045Y-77999828D01*
X104862042Y-77999835D01*
X104821119Y-78152562D01*
X102888600Y-78152562D01*
X102888600Y-77395375D01*
X102888600Y-77395373D01*
X102861307Y-77293513D01*
X102861307Y-77293512D01*
X102808580Y-77202187D01*
X102306819Y-76700426D01*
X102273334Y-76639103D01*
X102270500Y-76612745D01*
X102270500Y-76426929D01*
X102267710Y-76397185D01*
X102267710Y-76397181D01*
X102267708Y-76397177D01*
X102267708Y-76397173D01*
X102223852Y-76271844D01*
X102223852Y-76271843D01*
X102180890Y-76213631D01*
X102156920Y-76148005D01*
X102172235Y-76079835D01*
X102180885Y-76066374D01*
X102223852Y-76008157D01*
X102267710Y-75882819D01*
X102270500Y-75853066D01*
X102270500Y-75489653D01*
X102290185Y-75422614D01*
X102306815Y-75401976D01*
X102793466Y-74915324D01*
X102854787Y-74881841D01*
X102920273Y-74886524D01*
X102920365Y-74886184D01*
X102922130Y-74886657D01*
X102924478Y-74886825D01*
X102928153Y-74888270D01*
X102928212Y-74888285D01*
X102928216Y-74888288D01*
X103080943Y-74929211D01*
X103080945Y-74929211D01*
X103239055Y-74929211D01*
X103239057Y-74929211D01*
X103391784Y-74888288D01*
X103528716Y-74809231D01*
X103640520Y-74697427D01*
X103719577Y-74560495D01*
X103760500Y-74407768D01*
X103760500Y-74249654D01*
X103719577Y-74096927D01*
X103711420Y-74082798D01*
X103640524Y-73960001D01*
X103640518Y-73959993D01*
X103528717Y-73848192D01*
X103528709Y-73848186D01*
X103391790Y-73769137D01*
X103391786Y-73769135D01*
X103391784Y-73769134D01*
X103239057Y-73728211D01*
X103080943Y-73728211D01*
X102928216Y-73769134D01*
X102928209Y-73769137D01*
X102791283Y-73848190D01*
X102716564Y-73922908D01*
X102666397Y-73951874D01*
X102666612Y-73952393D01*
X102662675Y-73954023D01*
X102660990Y-73954997D01*
X102659108Y-73955501D01*
X102659104Y-73955503D01*
X102659102Y-73955503D01*
X102659102Y-73955504D01*
X102651313Y-73960001D01*
X102567774Y-74008232D01*
X101532826Y-75043181D01*
X101471503Y-75076666D01*
X101445145Y-75079500D01*
X101436930Y-75079500D01*
X101407185Y-75082289D01*
X101407173Y-75082291D01*
X101281844Y-75126147D01*
X101175001Y-75205001D01*
X101096147Y-75311844D01*
X101052291Y-75437173D01*
X101052289Y-75437185D01*
X101049500Y-75466929D01*
X101049500Y-75853070D01*
X101052289Y-75882814D01*
X101052291Y-75882826D01*
X101096147Y-76008157D01*
X101096148Y-76008158D01*
X101139108Y-76066367D01*
X101163079Y-76131996D01*
X101147763Y-76200166D01*
X101139108Y-76213633D01*
X101096148Y-76271841D01*
X101096147Y-76271842D01*
X101052291Y-76397173D01*
X101052289Y-76397185D01*
X101049500Y-76426929D01*
X101049500Y-76813070D01*
X101052289Y-76842814D01*
X101052291Y-76842826D01*
X101096147Y-76968155D01*
X101096148Y-76968157D01*
X101175001Y-77074999D01*
X101281843Y-77153852D01*
X101320003Y-77167204D01*
X101407173Y-77197708D01*
X101407177Y-77197708D01*
X101407181Y-77197710D01*
X101422057Y-77199105D01*
X101436930Y-77200500D01*
X101436934Y-77200500D01*
X101622745Y-77200500D01*
X101689784Y-77220185D01*
X101710426Y-77236819D01*
X102051281Y-77577674D01*
X102084766Y-77638997D01*
X102087600Y-77665355D01*
X102087600Y-79490500D01*
X102067915Y-79557539D01*
X102015111Y-79603294D01*
X101963600Y-79614500D01*
X101807343Y-79614500D01*
X101654616Y-79655423D01*
X101654615Y-79655423D01*
X101570814Y-79703805D01*
X101502913Y-79720276D01*
X101436887Y-79697424D01*
X101421134Y-79684098D01*
X101326817Y-79589781D01*
X101326809Y-79589775D01*
X101189890Y-79510726D01*
X101189886Y-79510724D01*
X101189884Y-79510723D01*
X101037157Y-79469800D01*
X100879043Y-79469800D01*
X100726316Y-79510723D01*
X100726309Y-79510726D01*
X100589390Y-79589775D01*
X100589382Y-79589781D01*
X100545683Y-79633481D01*
X100484360Y-79666966D01*
X100458002Y-79669800D01*
X95604373Y-79669800D01*
X95502510Y-79697093D01*
X95411187Y-79749820D01*
X95411184Y-79749822D01*
X80375622Y-94785384D01*
X80375620Y-94785387D01*
X80322893Y-94876710D01*
X80317321Y-94897504D01*
X80314536Y-94907901D01*
X80314536Y-94907902D01*
X80314535Y-94907901D01*
X80295600Y-94978571D01*
X80295600Y-95203002D01*
X80275915Y-95270041D01*
X80223111Y-95315796D01*
X80153953Y-95325740D01*
X80090397Y-95296715D01*
X80083919Y-95290683D01*
X79976317Y-95183081D01*
X79976309Y-95183075D01*
X79839390Y-95104026D01*
X79839386Y-95104024D01*
X79839384Y-95104023D01*
X79686657Y-95063100D01*
X79528543Y-95063100D01*
X79375816Y-95104023D01*
X79375809Y-95104026D01*
X79238890Y-95183075D01*
X79238882Y-95183081D01*
X79127081Y-95294882D01*
X79127079Y-95294885D01*
X79109265Y-95325740D01*
X79048023Y-95431816D01*
X79048022Y-95431818D01*
X79043961Y-95438853D01*
X79043340Y-95438494D01*
X79021506Y-95471167D01*
X77790291Y-96702383D01*
X77790289Y-96702386D01*
X77717816Y-96827914D01*
X77717816Y-96827915D01*
X77680300Y-96967925D01*
X44020500Y-96967925D01*
X44020500Y-66850943D01*
X63129500Y-66850943D01*
X63129500Y-67009056D01*
X63170423Y-67161783D01*
X63170426Y-67161790D01*
X63249475Y-67298709D01*
X63249479Y-67298714D01*
X63249480Y-67298716D01*
X63361284Y-67410520D01*
X63361286Y-67410521D01*
X63361290Y-67410524D01*
X63498209Y-67489573D01*
X63498216Y-67489577D01*
X63650943Y-67530500D01*
X63712745Y-67530500D01*
X63779784Y-67550185D01*
X63800426Y-67566819D01*
X73171187Y-76937580D01*
X73262512Y-76990307D01*
X73364373Y-77017600D01*
X88926802Y-77017600D01*
X88993841Y-77037285D01*
X89014483Y-77053919D01*
X89058184Y-77097620D01*
X89058186Y-77097621D01*
X89058190Y-77097624D01*
X89195109Y-77176673D01*
X89195116Y-77176677D01*
X89347843Y-77217600D01*
X89347845Y-77217600D01*
X89505955Y-77217600D01*
X89505957Y-77217600D01*
X89658684Y-77176677D01*
X89795616Y-77097620D01*
X89907420Y-76985816D01*
X89986477Y-76848884D01*
X90027400Y-76696157D01*
X90027400Y-76538043D01*
X89986477Y-76385316D01*
X89920964Y-76271843D01*
X89907424Y-76248390D01*
X89907418Y-76248382D01*
X89795617Y-76136581D01*
X89795609Y-76136575D01*
X89658690Y-76057526D01*
X89658686Y-76057524D01*
X89658684Y-76057523D01*
X89505957Y-76016600D01*
X89347843Y-76016600D01*
X89195116Y-76057523D01*
X89195109Y-76057526D01*
X89058190Y-76136575D01*
X89058182Y-76136581D01*
X89014483Y-76180281D01*
X88953160Y-76213766D01*
X88926802Y-76216600D01*
X73634355Y-76216600D01*
X73567316Y-76196915D01*
X73546674Y-76180281D01*
X72463336Y-75096943D01*
X91705200Y-75096943D01*
X91705200Y-75255056D01*
X91746123Y-75407783D01*
X91746126Y-75407790D01*
X91825175Y-75544709D01*
X91825179Y-75544714D01*
X91825180Y-75544716D01*
X91936984Y-75656520D01*
X91936986Y-75656521D01*
X91936990Y-75656524D01*
X92073909Y-75735573D01*
X92073916Y-75735577D01*
X92226643Y-75776500D01*
X92226645Y-75776500D01*
X92384755Y-75776500D01*
X92384757Y-75776500D01*
X92537484Y-75735577D01*
X92674416Y-75656520D01*
X92786220Y-75544716D01*
X92865277Y-75407784D01*
X92906200Y-75255057D01*
X92906200Y-75193254D01*
X92925885Y-75126215D01*
X92942519Y-75105573D01*
X96935173Y-71112919D01*
X96996496Y-71079434D01*
X97022854Y-71076600D01*
X100517702Y-71076600D01*
X100584741Y-71096285D01*
X100605383Y-71112919D01*
X100649084Y-71156620D01*
X100649086Y-71156621D01*
X100649090Y-71156624D01*
X100786009Y-71235673D01*
X100786016Y-71235677D01*
X100938743Y-71276600D01*
X100938745Y-71276600D01*
X101096855Y-71276600D01*
X101096857Y-71276600D01*
X101249584Y-71235677D01*
X101386516Y-71156620D01*
X101498320Y-71044816D01*
X101577377Y-70907884D01*
X101618300Y-70755157D01*
X101618300Y-70597043D01*
X101577377Y-70444316D01*
X101526169Y-70355620D01*
X101498324Y-70307390D01*
X101498318Y-70307382D01*
X101386517Y-70195581D01*
X101386509Y-70195575D01*
X101249590Y-70116526D01*
X101249586Y-70116524D01*
X101249584Y-70116523D01*
X101096857Y-70075600D01*
X100938743Y-70075600D01*
X100786016Y-70116523D01*
X100786009Y-70116526D01*
X100649090Y-70195575D01*
X100649082Y-70195581D01*
X100605383Y-70239281D01*
X100544060Y-70272766D01*
X100517702Y-70275600D01*
X96865939Y-70275600D01*
X96865923Y-70275599D01*
X96858327Y-70275599D01*
X96752873Y-70275599D01*
X96684966Y-70293795D01*
X96651012Y-70302893D01*
X96559684Y-70355622D01*
X92376126Y-74539181D01*
X92314803Y-74572666D01*
X92288445Y-74575500D01*
X92226643Y-74575500D01*
X92073916Y-74616423D01*
X92073909Y-74616426D01*
X91936990Y-74695475D01*
X91936982Y-74695481D01*
X91825181Y-74807282D01*
X91825175Y-74807290D01*
X91746126Y-74944209D01*
X91746123Y-74944216D01*
X91705200Y-75096943D01*
X72463336Y-75096943D01*
X64366819Y-67000426D01*
X64364666Y-66996484D01*
X83329500Y-66996484D01*
X83329500Y-67283515D01*
X83329501Y-67283531D01*
X83362015Y-67530500D01*
X83366967Y-67568110D01*
X83374146Y-67594904D01*
X83441262Y-67845380D01*
X83551100Y-68110555D01*
X83551106Y-68110567D01*
X83694628Y-68359154D01*
X83694633Y-68359160D01*
X83694634Y-68359162D01*
X83869367Y-68586879D01*
X83869373Y-68586886D01*
X84072334Y-68789847D01*
X84072340Y-68789852D01*
X84300067Y-68964593D01*
X84548654Y-69108115D01*
X84548659Y-69108117D01*
X84548665Y-69108120D01*
X84813840Y-69217958D01*
X84813842Y-69217958D01*
X84813848Y-69217961D01*
X85091111Y-69292254D01*
X85375699Y-69329721D01*
X85375706Y-69329721D01*
X85662736Y-69329721D01*
X85662743Y-69329721D01*
X85947331Y-69292254D01*
X86224594Y-69217961D01*
X86489788Y-69108115D01*
X86738375Y-68964593D01*
X86966102Y-68789852D01*
X87169073Y-68586881D01*
X87343814Y-68359154D01*
X87487336Y-68110567D01*
X87597182Y-67845373D01*
X87671475Y-67568110D01*
X87708942Y-67283522D01*
X87708942Y-66996478D01*
X87671475Y-66711890D01*
X87597182Y-66434627D01*
X87597179Y-66434619D01*
X87487341Y-66169444D01*
X87487338Y-66169438D01*
X87487336Y-66169433D01*
X87343814Y-65920846D01*
X87169073Y-65693119D01*
X87169068Y-65693113D01*
X86966107Y-65490152D01*
X86966100Y-65490146D01*
X86738383Y-65315413D01*
X86738381Y-65315412D01*
X86738375Y-65315407D01*
X86489788Y-65171885D01*
X86489776Y-65171879D01*
X86224601Y-65062041D01*
X85947327Y-64987745D01*
X85662752Y-64950280D01*
X85662749Y-64950279D01*
X85662743Y-64950279D01*
X85375699Y-64950279D01*
X85375693Y-64950279D01*
X85375689Y-64950280D01*
X85091114Y-64987745D01*
X84813840Y-65062041D01*
X84548665Y-65171879D01*
X84548651Y-65171886D01*
X84300073Y-65315403D01*
X84300058Y-65315413D01*
X84072341Y-65490146D01*
X84072334Y-65490152D01*
X83869373Y-65693113D01*
X83869367Y-65693120D01*
X83694634Y-65920837D01*
X83694624Y-65920852D01*
X83551107Y-66169430D01*
X83551100Y-66169444D01*
X83441262Y-66434619D01*
X83366966Y-66711893D01*
X83329501Y-66996468D01*
X83329500Y-66996484D01*
X64364666Y-66996484D01*
X64333334Y-66939103D01*
X64330500Y-66912745D01*
X64330500Y-66850945D01*
X64330500Y-66850943D01*
X64289577Y-66698216D01*
X64282002Y-66685096D01*
X64210524Y-66561290D01*
X64210518Y-66561282D01*
X64098717Y-66449481D01*
X64098709Y-66449475D01*
X63961790Y-66370426D01*
X63961786Y-66370424D01*
X63961784Y-66370423D01*
X63809057Y-66329500D01*
X63650943Y-66329500D01*
X63498216Y-66370423D01*
X63498209Y-66370426D01*
X63361290Y-66449475D01*
X63361282Y-66449481D01*
X63249481Y-66561282D01*
X63249475Y-66561290D01*
X63170426Y-66698209D01*
X63170423Y-66698216D01*
X63129500Y-66850943D01*
X44020500Y-66850943D01*
X44020500Y-47713569D01*
X45215889Y-47713569D01*
X45215889Y-49041726D01*
X45215891Y-49041752D01*
X45218802Y-49066857D01*
X45218804Y-49066861D01*
X45264182Y-49169634D01*
X45264183Y-49169635D01*
X45343624Y-49249076D01*
X45446398Y-49294455D01*
X45471524Y-49297370D01*
X47255655Y-49297369D01*
X47255670Y-49297367D01*
X47255673Y-49297367D01*
X47280778Y-49294456D01*
X47280779Y-49294455D01*
X47280782Y-49294455D01*
X47383556Y-49249076D01*
X47462997Y-49169635D01*
X47508376Y-49066861D01*
X47511291Y-49041735D01*
X47511291Y-48894500D01*
X47530976Y-48827461D01*
X47583780Y-48781706D01*
X47635291Y-48770500D01*
X83225045Y-48770500D01*
X83292084Y-48790185D01*
X83312726Y-48806819D01*
X89043181Y-54537274D01*
X89076666Y-54598597D01*
X89079500Y-54624955D01*
X89079500Y-72499902D01*
X89059815Y-72566941D01*
X89043181Y-72587583D01*
X88999481Y-72631282D01*
X88999475Y-72631290D01*
X88920426Y-72768209D01*
X88920423Y-72768216D01*
X88879500Y-72920943D01*
X88879500Y-73079056D01*
X88920423Y-73231783D01*
X88920426Y-73231790D01*
X88999475Y-73368709D01*
X88999479Y-73368714D01*
X88999480Y-73368716D01*
X89111284Y-73480520D01*
X89111286Y-73480521D01*
X89111290Y-73480524D01*
X89248209Y-73559573D01*
X89248216Y-73559577D01*
X89400943Y-73600500D01*
X89400945Y-73600500D01*
X89559055Y-73600500D01*
X89559057Y-73600500D01*
X89711784Y-73559577D01*
X89848716Y-73480520D01*
X89960520Y-73368716D01*
X90039577Y-73231784D01*
X90080500Y-73079057D01*
X90080500Y-72920943D01*
X90039577Y-72768216D01*
X90039573Y-72768209D01*
X89960524Y-72631290D01*
X89960518Y-72631282D01*
X89916819Y-72587583D01*
X89883334Y-72526260D01*
X89880500Y-72499902D01*
X89880500Y-54354975D01*
X89880500Y-54354973D01*
X89853207Y-54253113D01*
X89853207Y-54253112D01*
X89800480Y-54161787D01*
X83688213Y-48049520D01*
X83642550Y-48023156D01*
X83596889Y-47996793D01*
X83545957Y-47983146D01*
X83495027Y-47969500D01*
X83495026Y-47969500D01*
X47635290Y-47969500D01*
X47568251Y-47949815D01*
X47522496Y-47897011D01*
X47511290Y-47845500D01*
X47511290Y-47713581D01*
X47511290Y-47713574D01*
X47511288Y-47713555D01*
X47508377Y-47688450D01*
X47508376Y-47688448D01*
X47508376Y-47688447D01*
X47462997Y-47585673D01*
X47383556Y-47506232D01*
X47383554Y-47506231D01*
X47280783Y-47460853D01*
X47255656Y-47457938D01*
X45471532Y-47457938D01*
X45471506Y-47457940D01*
X45446401Y-47460851D01*
X45446397Y-47460853D01*
X45343624Y-47506231D01*
X45264183Y-47585672D01*
X45218804Y-47688444D01*
X45218804Y-47688446D01*
X45215889Y-47713569D01*
X44020500Y-47713569D01*
X44020500Y-46724500D01*
X44040185Y-46657461D01*
X44092989Y-46611706D01*
X44144500Y-46600500D01*
X126895500Y-46600500D01*
X126962539Y-46620185D01*
G37*
%TD.AperFunction*%
%TD*%
M02*
